<?xml version="1.0" encoding="utf-8"?>
<!-- Generator: Adobe Illustrator 21.1.0, SVG Export Plug-In . SVG Version: 6.00 Build 0)  -->
<svg version="1.1" id="Слой_1" xmlns="http://www.w3.org/2000/svg" xmlns:xlink="http://www.w3.org/1999/xlink" x="0px" y="0px"
	 viewBox="0 0 60 48" enable-background="new 0 0 60 48" xml:space="preserve">
<g>
	<g>
		<path fill="#0CAAFE" d="M53,32H35.2c-0.6,0-1-0.4-1-1s0.4-1,1-1H53c2.8,0,5-2.2,5-5s-2.2-5-5-5c-0.5,0-0.9-0.4-1-0.8
			c0-0.2-0.9-5.2-5-5.2H7.4c-0.4,0-0.8-0.2-0.9-0.6l-2-5C4.4,8.1,4.1,8,4,8H2v7c0,8.4,6.6,15,15,15c0.6,0,1,0.4,1,1s-0.4,1-1,1
			C7.5,32,0,24.5,0,15V8c0-1.1,0.9-2,2-2h2c1,0,2,0.7,2.4,1.6L8.1,12H47c4.1,0,6.2,3.6,6.8,6c3.5,0.4,6.2,3.4,6.2,7
			C60,28.9,56.9,32,53,32z"/>
	</g>
	<g>
		<path fill="#0CAAFE" d="M38,20c-1.1,0-2-0.9-2-2s0.9-2,2-2s2,0.9,2,2S39.1,20,38,20z M38,18L38,18L38,18z"/>
	</g>
	<g>
		<path fill="#0CAAFE" d="M32,20c-1.1,0-2-0.9-2-2s0.9-2,2-2c1.1,0,2,0.9,2,2S33.1,20,32,20z M32,18L32,18L32,18z"/>
	</g>
	<g>
		<path fill="#0CAAFE" d="M26,20c-1.1,0-2-0.9-2-2s0.9-2,2-2s2,0.9,2,2S27.1,20,26,20z M26,18L26,18L26,18z M26,18L26,18L26,18z
			 M26,18L26,18L26,18z M26,18L26,18L26,18z M26,18L26,18L26,18z M26,18L26,18L26,18z M26,18L26,18L26,18z M26,18L26,18L26,18z"/>
	</g>
	<g>
		<path fill="#0CAAFE" d="M20,20c-1.1,0-2-0.9-2-2s0.9-2,2-2s2,0.9,2,2S21.1,20,20,20z M20,18L20,18L20,18z M20,18L20,18L20,18z
			 M20,18L20,18L20,18z M20,18L20,18L20,18z M20,18L20,18L20,18z M20,18L20,18L20,18z M20,18L20,18L20,18z M20,18L20,18L20,18z"/>
	</g>
	<g>
		<path fill="#0CAAFE" d="M14,20c-1.1,0-2-0.9-2-2s0.9-2,2-2s2,0.9,2,2S15.1,20,14,20z M14,18L14,18L14,18z M14,18L14,18L14,18z
			 M14,18L14,18L14,18z M14,18L14,18L14,18z M14,18L14,18L14,18z M14,18L14,18L14,18z M14,18L14,18L14,18z M14,18L14,18L14,18z"/>
	</g>
	<g>
		<path fill="#0CAAFE" d="M49,20h-2.5c-1.5,0-2.8-1-3.5-2.6c0,0,0-0.1,0-0.1l-1-4c-0.1-0.5,0.2-1.1,0.7-1.2c0.5-0.1,1.1,0.2,1.2,0.7
			l1,3.9c0.2,0.4,0.6,1.3,1.6,1.3H49c0.6,0,1,0.4,1,1S49.6,20,49,20z"/>
	</g>
	<g>
		<path fill="#0CAAFE" d="M26.5,48H22c-1.1,0-2-0.9-2-2V27c0-0.6,0.4-1,1-1h12c0.6,0,1,0.4,1,1s-0.4,1-1,1H22v18h4.5
			c0.1,0,0.5-0.2,0.6-0.4l9-19c0.2-0.5,0.8-0.7,1.3-0.5c0.5,0.2,0.7,0.8,0.5,1.3l-9,19C28.5,47.3,27.5,48,26.5,48z"/>
	</g>
	<g>
		<path fill="#0CAAFE" d="M53,28H41c-0.6,0-1-0.4-1-1s0.4-1,1-1h12c0.6,0,1,0.4,1,1S53.6,28,53,28z"/>
	</g>
	<g>
		<path fill="#0CAAFE" d="M26.5,48H22c-1.1,0-2-0.9-2-2V27c0-0.6,0.4-1,1-1h12c0.6,0,1,0.4,1,1s-0.4,1-1,1H22v18h4.5
			c0.1,0,0.5-0.2,0.6-0.4l9-19c0.2-0.5,0.8-0.7,1.3-0.5c0.5,0.2,0.7,0.8,0.5,1.3l-9,19C28.5,47.3,27.5,48,26.5,48z"/>
	</g>
	<g>
		<path fill="#0CAAFE" d="M31,10c-0.4,0-0.8-0.2-0.9-0.6l-3-7C27,2.2,26.7,2,26.5,2H22v7c0,0.6-0.4,1-1,1s-1-0.4-1-1V2
			c0-1.1,0.9-2,2-2h4.5c1,0,2,0.7,2.4,1.6l3,7c0.2,0.5,0,1.1-0.5,1.3C31.3,10,31.1,10,31,10z"/>
	</g>
	<g>
		<path fill="#0CAAFE" d="M15,2h-2c-0.6,0-1-0.4-1-1s0.4-1,1-1h2c0.6,0,1,0.4,1,1S15.6,2,15,2z"/>
	</g>
	<g>
		<path fill="#0CAAFE" d="M15,8h-4c-0.6,0-1-0.4-1-1s0.4-1,1-1h4c0.6,0,1,0.4,1,1S15.6,8,15,8z"/>
	</g>
	<g>
		<path fill="#0CAAFE" d="M15,36H9c-0.6,0-1-0.4-1-1s0.4-1,1-1h6c0.6,0,1,0.4,1,1S15.6,36,15,36z"/>
	</g>
	<g>
		<path fill="#0CAAFE" d="M15,42H5c-0.6,0-1-0.4-1-1s0.4-1,1-1h10c0.6,0,1,0.4,1,1S15.6,42,15,42z"/>
	</g>
	<g>
		<path fill="#0CAAFE" d="M15,48h-4c-0.6,0-1-0.4-1-1s0.4-1,1-1h4c0.6,0,1,0.4,1,1S15.6,48,15,48z"/>
	</g>
</g>
</svg>
