<?xml version="1.0" encoding="iso-8859-1"?>
<!-- Generator: Adobe Illustrator 18.0.0, SVG Export Plug-In . SVG Version: 6.00 Build 0)  -->
<!DOCTYPE svg PUBLIC "-//W3C//DTD SVG 1.1//EN" "http://www.w3.org/Graphics/SVG/1.1/DTD/svg11.dtd">
<svg version="1.1" id="Capa_1" xmlns="http://www.w3.org/2000/svg" xmlns:xlink="http://www.w3.org/1999/xlink" x="0px" y="0px"
	 viewBox="0 0 336.98 336.98" style="enable-background:new 0 0 336.98 336.98;" xml:space="preserve">
<g>
	<path d="M331.98,288.736H5c-2.762,0-5,2.239-5,5v15c0,2.761,2.238,5,5,5h326.98c2.762,0,5-2.239,5-5v-15
		C336.98,290.975,334.742,288.736,331.98,288.736z"/>
	<path d="M6.503,265.738h15c2.762,0,5-2.239,5-5V148.244c0-2.761-2.238-5-5-5h-15c-2.762,0-5,2.239-5,5v112.494
		C1.503,263.5,3.741,265.738,6.503,265.738z"/>
	<path d="M57.999,265.738h15c2.762,0,5-2.239,5-5V88.244c0-2.761-2.238-5-5-5h-15c-2.762,0-5,2.239-5,5v172.494
		C52.999,263.5,55.237,265.738,57.999,265.738z"/>
	<path d="M109.495,265.738h15c2.762,0,5-2.239,5-5V118.244c0-2.761-2.238-5-5-5h-15c-2.762,0-5,2.239-5,5v142.494
		C104.495,263.5,106.733,265.738,109.495,265.738z"/>
	<path d="M160.99,265.738h15c2.762,0,5-2.239,5-5V28.244c0-2.761-2.238-5-5-5h-15c-2.762,0-5,2.239-5,5v232.494
		C155.99,263.5,158.229,265.738,160.99,265.738z"/>
	<path d="M212.485,265.738h15c2.762,0,5-2.239,5-5V112.244c0-2.761-2.238-5-5-5h-15c-2.762,0-5,2.239-5,5v148.494
		C207.485,263.5,209.724,265.738,212.485,265.738z"/>
	<path d="M263.981,265.738h15c2.762,0,5-2.239,5-5V88.244c0-2.761-2.238-5-5-5h-15c-2.762,0-5,2.239-5,5v172.494
		C258.981,263.5,261.22,265.738,263.981,265.738z"/>
	<path d="M315.478,265.738h15c2.762,0,5-2.239,5-5V136.244c0-2.761-2.238-5-5-5h-15c-2.762,0-5,2.239-5,5v124.494
		C310.478,263.5,312.716,265.738,315.478,265.738z"/>
</g>
<g>
</g>
<g>
</g>
<g>
</g>
<g>
</g>
<g>
</g>
<g>
</g>
<g>
</g>
<g>
</g>
<g>
</g>
<g>
</g>
<g>
</g>
<g>
</g>
<g>
</g>
<g>
</g>
<g>
</g>
</svg>
