<?xml version="1.0" encoding="utf-8"?>
<!-- Generator: Adobe Illustrator 21.1.0, SVG Export Plug-In . SVG Version: 6.00 Build 0)  -->
<svg version="1.1" id="Слой_1" xmlns="http://www.w3.org/2000/svg" xmlns:xlink="http://www.w3.org/1999/xlink" x="0px" y="0px"
	 viewBox="0 0 60 60" enable-background="new 0 0 60 60" xml:space="preserve">
<g>
	<g>
		<path fill="#0CAAFE" d="M1,10c-0.6,0-1-0.4-1-1V7c0-2.6,2.4-5,5-5h4c0.6,0,1,0.4,1,1S9.6,4,9,4H5C3.5,4,2,5.5,2,7v2
			C2,9.6,1.6,10,1,10z"/>
	</g>
	<g>
		<path fill="#0CAAFE" d="M59,39c-0.6,0-1-0.4-1-1V7c0-1.5-1.5-3-3-3h-4c-0.6,0-1-0.4-1-1s0.4-1,1-1h4c2.6,0,5,2.4,5,5v31
			C60,38.6,59.6,39,59,39z"/>
	</g>
	<g>
		<path fill="#0CAAFE" d="M38,60H5c-2.6,0-5-2.4-5-5V13c0-0.6,0.4-1,1-1h54c0.6,0,1,0.4,1,1s-0.4,1-1,1H2v41c0,1.5,1.5,3,3,3h33
			c0.6,0,1,0.4,1,1S38.6,60,38,60z"/>
	</g>
	<g>
		<path fill="#0CAAFE" d="M36,56H8c-2.2,0-4-1.8-4-4V17c0-0.6,0.4-1,1-1h50c0.6,0,1,0.4,1,1v19c0,0.6-0.4,1-1,1s-1-0.4-1-1V18H6v34
			c0,1.1,0.9,2,2,2h28c0.6,0,1,0.4,1,1S36.6,56,36,56z"/>
	</g>
	<g>
		<path fill="#0CAAFE" d="M15,10c-1.7,0-3-1.3-3-3V3c0-1.7,1.3-3,3-3s3,1.3,3,3v4C18,8.7,16.7,10,15,10z M15,2c-0.6,0-1,0.4-1,1v4
			c0,0.6,0.4,1,1,1s1-0.4,1-1V3C16,2.4,15.6,2,15,2z"/>
	</g>
	<g>
		<path fill="#0CAAFE" d="M25,10c-1.7,0-3-1.3-3-3V3c0-1.7,1.3-3,3-3s3,1.3,3,3v4C28,8.7,26.7,10,25,10z M25,2c-0.6,0-1,0.4-1,1v4
			c0,0.6,0.4,1,1,1s1-0.4,1-1V3C26,2.4,25.6,2,25,2z"/>
	</g>
	<g>
		<path fill="#0CAAFE" d="M35,10c-1.7,0-3-1.3-3-3V3c0-1.7,1.3-3,3-3s3,1.3,3,3v4C38,8.7,36.7,10,35,10z M35,2c-0.6,0-1,0.4-1,1v4
			c0,0.6,0.4,1,1,1s1-0.4,1-1V3C36,2.4,35.6,2,35,2z"/>
	</g>
	<g>
		<path fill="#0CAAFE" d="M45,10c-1.7,0-3-1.3-3-3V3c0-1.7,1.3-3,3-3s3,1.3,3,3v4C48,8.7,46.7,10,45,10z M45,2c-0.6,0-1,0.4-1,1v4
			c0,0.6,0.4,1,1,1s1-0.4,1-1V3C46,2.4,45.6,2,45,2z"/>
	</g>
	<g>
		<path fill="#0CAAFE" d="M17,28h-4c-0.6,0-1-0.4-1-1v-4c0-0.6,0.4-1,1-1h4c0.6,0,1,0.4,1,1v4C18,27.6,17.6,28,17,28z M14,26h2v-2
			h-2V26z"/>
	</g>
	<g>
		<path fill="#0CAAFE" d="M17,38h-4c-0.6,0-1-0.4-1-1v-4c0-0.6,0.4-1,1-1h4c0.6,0,1,0.4,1,1v4C18,37.6,17.6,38,17,38z M14,36h2v-2
			h-2V36z"/>
	</g>
	<g>
		<path fill="#0CAAFE" d="M27,28h-4c-0.6,0-1-0.4-1-1v-4c0-0.6,0.4-1,1-1h4c0.6,0,1,0.4,1,1v4C28,27.6,27.6,28,27,28z M24,26h2v-2
			h-2V26z"/>
	</g>
	<g>
		<path fill="#0CAAFE" d="M27,38h-4c-0.6,0-1-0.4-1-1v-4c0-0.6,0.4-1,1-1h4c0.6,0,1,0.4,1,1v4C28,37.6,27.6,38,27,38z M24,36h2v-2
			h-2V36z"/>
	</g>
	<g>
		<path fill="#0CAAFE" d="M37,38h-4c-0.6,0-1-0.4-1-1v-4c0-0.6,0.4-1,1-1h4c0.6,0,1,0.4,1,1v4C38,37.6,37.6,38,37,38z M34,36h2v-2
			h-2V36z"/>
	</g>
	<g>
		<path fill="#0CAAFE" d="M47,36c-0.6,0-1-0.4-1-1v-1h-2v1c0,0.6-0.4,1-1,1s-1-0.4-1-1v-2c0-0.6,0.4-1,1-1h4c0.6,0,1,0.4,1,1v2
			C48,35.6,47.6,36,47,36z"/>
	</g>
	<g>
		<path fill="#0CAAFE" d="M37,28h-4c-0.6,0-1-0.4-1-1v-4c0-0.6,0.4-1,1-1h4c0.6,0,1,0.4,1,1v4C38,27.6,37.6,28,37,28z M34,26h2v-2
			h-2V26z"/>
	</g>
	<g>
		<path fill="#0CAAFE" d="M17,48h-4c-0.6,0-1-0.4-1-1v-4c0-0.6,0.4-1,1-1h4c0.6,0,1,0.4,1,1v4C18,47.6,17.6,48,17,48z M14,46h2v-2
			h-2V46z"/>
	</g>
	<g>
		<path fill="#0CAAFE" d="M27,48h-4c-0.6,0-1-0.4-1-1v-4c0-0.6,0.4-1,1-1h4c0.6,0,1,0.4,1,1v4C28,47.6,27.6,48,27,48z M24,46h2v-2
			h-2V46z"/>
	</g>
	<g>
		<path fill="#0CAAFE" d="M47,28h-4c-0.6,0-1-0.4-1-1v-4c0-0.6,0.4-1,1-1h4c0.6,0,1,0.4,1,1v4C48,27.6,47.6,28,47,28z M44,26h2v-2
			h-2V26z"/>
	</g>
	<g>
		<path fill="#0CAAFE" d="M49,60c-6.1,0-11-4.9-11-11s4.9-11,11-11s11,4.9,11,11S55.1,60,49,60z M49,40c-5,0-9,4-9,9s4,9,9,9
			s9-4,9-9S54,40,49,40z"/>
	</g>
	<g>
		<path fill="#0CAAFE" d="M55,50h-6c-0.6,0-1-0.4-1-1v-4c0-0.6,0.4-1,1-1s1,0.4,1,1v3h5c0.6,0,1,0.4,1,1S55.6,50,55,50z"/>
	</g>
	<g>
		<path fill="#0CAAFE" d="M35,48h-2c-0.6,0-1-0.4-1-1v-4c0-0.6,0.4-1,1-1h2c0.6,0,1,0.4,1,1s-0.4,1-1,1h-1v2h1c0.6,0,1,0.4,1,1
			S35.6,48,35,48z"/>
	</g>
</g>
</svg>
