<?xml version="1.0" encoding="utf-8"?>
<!-- Generator: Adobe Illustrator 21.1.0, SVG Export Plug-In . SVG Version: 6.00 Build 0)  -->
<svg version="1.1" id="Слой_1" xmlns="http://www.w3.org/2000/svg" xmlns:xlink="http://www.w3.org/1999/xlink" x="0px" y="0px"
	 viewBox="0 0 16 15" enable-background="new 0 0 16 15" xml:space="preserve">
<g id="_x33_-ecommerce_-_shop_cart">
	<g>
		<path fill="#0F2841" d="M7,13c-0.6,0-1,0.4-1,1c0,0.6,0.4,1,1,1c0.6,0,1-0.4,1-1C8,13.4,7.6,13,7,13z M16,4.6
			C16,4.5,16,4.5,16,4.6c0-0.1,0-0.2,0-0.3c0,0,0-0.1-0.1-0.1c-0.1-0.1-0.1-0.1-0.2-0.2c0,0,0,0,0,0c-0.1,0-0.1,0-0.2,0c0,0,0,0,0,0
			h0c0,0,0,0,0,0H5l-1-3.6C4,0.1,3.8,0,3.5,0c0,0,0,0,0,0h-3C0.2,0,0,0.2,0,0.5C0,0.8,0.2,1,0.5,1h2.6L4,4.4c0,0,0,0.1,0,0.1
			c0,0.1,0.1,0.2,0.1,0.3l1.8,6.8C6,11.9,6.2,12,6.5,12c0,0,0,0,0,0h7c0,0,0,0,0,0c0,0,0.1,0,0.1,0c0.2,0,0.4-0.2,0.4-0.5
			c0,0,0,0,0-0.1L16,4.6C16,4.6,16,4.6,16,4.6z M13.1,11H6.9L5.3,5h9.6L13.1,11z M12,13c-0.6,0-1,0.4-1,1c0,0.6,0.4,1,1,1
			c0.6,0,1-0.4,1-1C13,13.4,12.6,13,12,13z"/>
	</g>
</g>
</svg>
