<?xml version="1.0" encoding="utf-8"?>
<!-- Generator: Adobe Illustrator 21.1.0, SVG Export Plug-In . SVG Version: 6.00 Build 0)  -->
<svg version="1.1" id="Слой_1" xmlns="http://www.w3.org/2000/svg" xmlns:xlink="http://www.w3.org/1999/xlink" x="0px" y="0px"
	 viewBox="0 0 61 60" enable-background="new 0 0 61 60" xml:space="preserve">
<g>
	<g>
		<path fill="#0CAAFE" d="M38,60H10c-2.6,0-5-2.4-5-5V9c0-2.6,2.4-5,5-5h6c0.6,0,1,0.4,1,1s-0.4,1-1,1h-6C8.5,6,7,7.5,7,9v46
			c0,1.5,1.5,3,3,3h28c0.6,0,1,0.4,1,1S38.6,60,38,60z"/>
	</g>
	<g>
		<path fill="#0CAAFE" d="M56,36c-0.6,0-1-0.4-1-1V9c0-1.5-1.5-3-3-3h-6c-0.6,0-1-0.4-1-1s0.4-1,1-1h6c2.6,0,5,2.4,5,5v26
			C57,35.6,56.6,36,56,36z"/>
	</g>
	<g>
		<path fill="#0CAAFE" d="M36,56H13c-2.2,0-4-1.8-4-4V9c0-0.6,0.4-1,1-1h6c0.6,0,1,0.4,1,1s-0.4,1-1,1h-5v42c0,1.1,0.9,2,2,2h23
			c0.6,0,1,0.4,1,1S36.6,56,36,56z"/>
	</g>
	<g>
		<path fill="#0CAAFE" d="M52,36c-0.6,0-1-0.4-1-1V10h-5c-0.6,0-1-0.4-1-1s0.4-1,1-1h6c0.6,0,1,0.4,1,1v26C53,35.6,52.6,36,52,36z"
			/>
	</g>
	<g>
		<path fill="#0CAAFE" d="M31,8c-1.1,0-2-0.9-2-2s0.9-2,2-2s2,0.9,2,2S32.1,8,31,8z M31,6L31,6L31,6z"/>
	</g>
	<g>
		<path fill="#0CAAFE" d="M42,12H20c-0.6,0-1-0.4-1-1V5c0-0.6,0.4-1,1-1h5.3c0.8-2.4,3.1-4,5.7-4s4.8,1.6,5.7,4H42c0.6,0,1,0.4,1,1
			v6C43,11.6,42.6,12,42,12z M21,10h20V6h-5.1c-0.5,0-0.9-0.3-1-0.8C34.5,3.3,32.9,2,31,2s-3.5,1.3-3.9,3.2C27,5.7,26.6,6,26.1,6H21
			V10z"/>
	</g>
	<g>
		<path fill="#0CAAFE" d="M20,22h-2c-0.6,0-1-0.4-1-1s0.4-1,1-1h2c0.6,0,1,0.4,1,1S20.6,22,20,22z"/>
	</g>
	<g>
		<path fill="#0CAAFE" d="M20,28h-2c-0.6,0-1-0.4-1-1s0.4-1,1-1h2c0.6,0,1,0.4,1,1S20.6,28,20,28z"/>
	</g>
	<g>
		<path fill="#0CAAFE" d="M20,34h-2c-0.6,0-1-0.4-1-1s0.4-1,1-1h2c0.6,0,1,0.4,1,1S20.6,34,20,34z"/>
	</g>
	<g>
		<path fill="#0CAAFE" d="M20,40h-2c-0.6,0-1-0.4-1-1s0.4-1,1-1h2c0.6,0,1,0.4,1,1S20.6,40,20,40z"/>
	</g>
	<g>
		<path fill="#0CAAFE" d="M20,46h-2c-0.6,0-1-0.4-1-1s0.4-1,1-1h2c0.6,0,1,0.4,1,1S20.6,46,20,46z"/>
	</g>
	<g>
		<path fill="#0CAAFE" d="M42,22H26c-0.6,0-1-0.4-1-1s0.4-1,1-1h16c0.6,0,1,0.4,1,1S42.6,22,42,22z"/>
	</g>
	<g>
		<path fill="#0CAAFE" d="M40,28H26c-0.6,0-1-0.4-1-1s0.4-1,1-1h14c0.6,0,1,0.4,1,1S40.6,28,40,28z"/>
	</g>
	<g>
		<path fill="#0CAAFE" d="M44,34H26c-0.6,0-1-0.4-1-1s0.4-1,1-1h18c0.6,0,1,0.4,1,1S44.6,34,44,34z"/>
	</g>
	<g>
		<path fill="#0CAAFE" d="M38,40H26c-0.6,0-1-0.4-1-1s0.4-1,1-1h12c0.6,0,1,0.4,1,1S38.6,40,38,40z"/>
	</g>
	<g>
		<path fill="#0CAAFE" d="M34,46h-8c-0.6,0-1-0.4-1-1s0.4-1,1-1h8c0.6,0,1,0.4,1,1S34.6,46,34,46z"/>
	</g>
	<g>
		<path fill="#0CAAFE" d="M49,53c-0.3,0-0.5-0.1-0.7-0.3l-3-3c-0.4-0.4-0.4-1,0-1.4s1-0.4,1.4,0l2.3,2.3l4.3-4.3
			c0.4-0.4,1-0.4,1.4,0s0.4,1,0,1.4l-5,5C49.5,52.9,49.3,53,49,53z"/>
	</g>
	<g>
		<path fill="#0CAAFE" d="M50,60c-6.1,0-11-4.9-11-11s4.9-11,11-11s11,4.9,11,11S56.1,60,50,60z M50,40c-5,0-9,4-9,9s4,9,9,9
			s9-4,9-9S55,40,50,40z"/>
	</g>
</g>
</svg>
