<?xml version="1.0" encoding="utf-8"?>
<!-- Generator: Adobe Illustrator 21.1.0, SVG Export Plug-In . SVG Version: 6.00 Build 0)  -->
<svg version="1.1" id="Слой_1" xmlns="http://www.w3.org/2000/svg" xmlns:xlink="http://www.w3.org/1999/xlink" x="0px" y="0px"
	 viewBox="0 0 52 60" enable-background="new 0 0 52 60" xml:space="preserve">
<g>
	<g>
		<path fill="#CFCFCF" d="M47,52H13c-2.8,0-5-2.2-5-5V5c0-2.8,2.2-5,5-5h26c0.3,0,0.5,0.1,0.7,0.3l8,8c0.4,0.4,0.4,1,0,1.4
			s-1,0.4-1.4,0L38.6,2H13c-1.7,0-3,1.3-3,3v42c0,1.7,1.3,3,3,3h34c1.7,0,3-1.3,3-3V14h-7c-2.8,0-5-2.2-5-5V6c0-0.6,0.4-1,1-1
			s1,0.4,1,1v3c0,1.7,1.3,3,3,3h8c0.6,0,1,0.4,1,1v34C52,49.8,49.8,52,47,52z"/>
	</g>
	<g>
		<path fill="#CFCFCF" d="M45,56H9c-2.8,0-5-2.2-5-5V7c0-0.6,0.4-1,1-1s1,0.4,1,1v44c0,1.7,1.3,3,3,3h36c0.6,0,1,0.4,1,1
			S45.6,56,45,56z"/>
	</g>
	<g>
		<path fill="#CFCFCF" d="M41,60H5c-2.8,0-5-2.2-5-5V11c0-0.6,0.4-1,1-1s1,0.4,1,1v44c0,1.7,1.3,3,3,3h36c0.6,0,1,0.4,1,1
			S41.6,60,41,60z"/>
	</g>
	<g>
		<path fill="#CFCFCF" d="M31,16H19c-0.6,0-1-0.4-1-1s0.4-1,1-1h12c0.6,0,1,0.4,1,1S31.6,16,31,16z"/>
	</g>
	<g>
		<path fill="#CFCFCF" d="M25,24h-6c-0.6,0-1-0.4-1-1s0.4-1,1-1h6c0.6,0,1,0.4,1,1S25.6,24,25,24z"/>
	</g>
	<g>
		<path fill="#CFCFCF" d="M39,24H29c-0.6,0-1-0.4-1-1s0.4-1,1-1h10c0.6,0,1,0.4,1,1S39.6,24,39,24z"/>
	</g>
	<g>
		<path fill="#CFCFCF" d="M31,36H19c-0.6,0-1-0.4-1-1s0.4-1,1-1h12c0.6,0,1,0.4,1,1S31.6,36,31,36z"/>
	</g>
	<g>
		<path fill="#CFCFCF" d="M23,30h-4c-0.6,0-1-0.4-1-1s0.4-1,1-1h4c0.6,0,1,0.4,1,1S23.6,30,23,30z"/>
	</g>
	<g>
		<path fill="#CFCFCF" d="M29,30h-2c-0.6,0-1-0.4-1-1s0.4-1,1-1h2c0.6,0,1,0.4,1,1S29.6,30,29,30z"/>
	</g>
	<g>
		<path fill="#CFCFCF" d="M41,30h-8c-0.6,0-1-0.4-1-1s0.4-1,1-1h8c0.6,0,1,0.4,1,1S41.6,30,41,30z"/>
	</g>
	<g>
		<path fill="#CFCFCF" d="M23,42h-4c-0.6,0-1-0.4-1-1s0.4-1,1-1h4c0.6,0,1,0.4,1,1S23.6,42,23,42z"/>
	</g>
	<g>
		<path fill="#CFCFCF" d="M41,42H27c-0.6,0-1-0.4-1-1s0.4-1,1-1h14c0.6,0,1,0.4,1,1S41.6,42,41,42z"/>
	</g>
	<g>
		<path fill="#CFCFCF" d="M39,36h-4c-0.6,0-1-0.4-1-1s0.4-1,1-1h4c0.6,0,1,0.4,1,1S39.6,36,39,36z"/>
	</g>
</g>
</svg>
