<?xml version="1.0" encoding="utf-8"?>
<!-- Generator: Adobe Illustrator 21.1.0, SVG Export Plug-In . SVG Version: 6.00 Build 0)  -->
<svg version="1.1" id="Слой_1" xmlns="http://www.w3.org/2000/svg" xmlns:xlink="http://www.w3.org/1999/xlink" x="0px" y="0px"
	 viewBox="0 0 24 22" style="enable-background:new 0 0 24 22;" xml:space="preserve">
<path d="M12,8c0.6,0,1,0.4,1,1s-0.4,1-1,1s-1-0.4-1-1S11.4,8,12,8z M12,6c-1.7,0-3,1.3-3,3s1.3,3,3,3s3-1.3,3-3S13.7,6,12,6z M3,10
	c-1.7,0-3,1.3-3,3s1.3,3,3,3s3-1.3,3-3S4.7,10,3,10z M21,10c-1.7,0-3,1.3-3,3s1.3,3,3,3s3-1.3,3-3S22.7,10,21,10z M12,4
	c0.3,0,0.7,0,1,0.1V1c0-0.6-0.4-1-1-1s-1,0.4-1,1v3.1C11.3,4,11.7,4,12,4z M21,8c0.3,0,0.7,0,1,0.1V1c0-0.6-0.4-1-1-1s-1,0.4-1,1
	v7.1C20.3,8,20.7,8,21,8z M21,18c-0.3,0-0.7,0-1-0.1V21c0,0.6,0.4,1,1,1s1-0.4,1-1v-3.1C21.7,18,21.3,18,21,18z M3,8
	c0.3,0,0.7,0,1,0.1V1c0-0.6-0.4-1-1-1S2,0.4,2,1v7.1C2.3,8,2.7,8,3,8z M12,14c-0.3,0-0.7,0-1-0.1V21c0,0.6,0.4,1,1,1s1-0.4,1-1v-7.1
	C12.7,14,12.3,14,12,14z M3,18c-0.3,0-0.7,0-1-0.1V21c0,0.6,0.4,1,1,1s1-0.4,1-1v-3.1C3.7,18,3.3,18,3,18z"/>
</svg>
