<?xml version="1.0" encoding="UTF-8" standalone="no"?>
<svg width="16px" height="16px" viewBox="0 0 16 16" version="1.1" xmlns="http://www.w3.org/2000/svg" xmlns:xlink="http://www.w3.org/1999/xlink">
    <!-- Generator: Sketch 50 (54983) - http://www.bohemiancoding.com/sketch -->
    <title>inst</title>
    <desc>Created with Sketch.</desc>
    <defs>
        <linearGradient x1="12.3437054%" y1="89.6114262%" x2="91.2203018%" y2="9.88869863%" id="linearGradient-1">
            <stop stop-color="#FBBE3B" offset="0%"></stop>
            <stop stop-color="#F41004" offset="62.9409729%"></stop>
            <stop stop-color="#BB008D" offset="100%"></stop>
        </linearGradient>
    </defs>
    <g id="Page-1" stroke="none" stroke-width="1" fill="none" fill-rule="evenodd">
        <g id="inst" fill="url(#linearGradient-1)" fill-rule="nonzero">
            <path d="M8,0 C5.8,0 5.5,0 4.7,0.1 C3.8,0.1 3.3,0.2 2.8,0.4 C2.3,0.6 1.8,0.9 1.4,1.3 C1,1.7 0.6,2.2 0.4,2.8 C0.2,3.3 0.1,3.8 0.1,4.7 C0,5.5 0,5.8 0,8 C0,10.2 0,10.5 0.1,11.3 C0.1,12.2 0.2,12.7 0.4,13.2 C0.6,13.7 0.9,14.2 1.3,14.6 C1.7,15 2.2,15.3 2.7,15.5 C3.2,15.7 3.8,15.8 4.6,15.8 C5.5,16 5.8,16 8,16 C10.2,16 10.5,16 11.3,15.9 C12.2,15.9 12.7,15.8 13.2,15.6 C13.7,15.4 14.2,15.1 14.6,14.7 C15,14.3 15.3,13.8 15.5,13.3 C15.7,12.8 15.8,12.2 15.8,11.4 C16,10.5 16,10.2 16,8 C16,5.8 16,5.5 15.9,4.7 C15.9,3.8 15.8,3.3 15.6,2.8 C15.4,2.3 15.1,1.8 14.7,1.4 C14.3,1 13.8,0.7 13.3,0.5 C12.8,0.3 12.2,0.2 11.4,0.2 C10.5,0 10.2,0 8,0 Z M8,1.4 C10.1,1.4 10.4,1.4 11.2,1.5 C12,1.5 12.4,1.6 12.7,1.7 C13.1,1.8 13.3,2 13.6,2.3 C13.9,2.6 14.1,2.8 14.2,3.2 C14.3,3.5 14.4,3.9 14.4,4.7 C14.4,5.5 14.5,5.8 14.5,7.9 C14.5,10 14.5,10.3 14.4,11.1 C14.4,11.9 14.3,12.3 14.2,12.6 C14.1,13 13.9,13.2 13.6,13.5 C13.3,13.8 13.1,14 12.7,14.1 C12.4,14.2 12,14.3 11.2,14.3 C10.4,14.3 10.1,14.4 8,14.4 C5.9,14.4 5.6,14.4 4.8,14.3 C4,14.3 3.6,14.2 3.3,14.1 C2.9,14 2.7,13.8 2.4,13.5 C2.1,13.2 1.9,13 1.8,12.6 C1.7,12.3 1.6,11.9 1.6,11.1 C1.6,10.3 1.5,10 1.5,7.9 C1.5,5.8 1.5,5.5 1.6,4.7 C1.6,3.9 1.7,3.5 1.8,3.2 C1.9,2.8 2.1,2.6 2.4,2.3 C2.7,2 2.9,1.8 3.3,1.7 C3.6,1.6 4,1.5 4.8,1.5 C5.6,1.5 5.9,1.4 8,1.4 Z M12.3,2.8 C11.8,2.8 11.3,3.2 11.3,3.7 C11.3,4.2 11.7,4.7 12.3,4.7 C12.8,4.7 13.2,4.3 13.2,3.7 C13.2,3.1 12.8,2.8 12.3,2.8 Z M8,3.9 C5.7,3.9 3.9,5.7 3.9,8 C3.9,10.3 5.7,12.1 8,12.1 C10.3,12.1 12.1,10.3 12.1,8 C12.1,5.7 10.3,3.9 8,3.9 Z M8,5.3 C9.5,5.3 10.7,6.5 10.7,8 C10.7,9.5 9.5,10.7 8,10.7 C6.5,10.7 5.3,9.5 5.3,8 C5.3,6.5 6.5,5.3 8,5.3 Z" id="Shape"></path>
        </g>
    </g>
</svg>