<?xml version="1.0" encoding="utf-8"?>
<!-- Generator: Adobe Illustrator 19.2.1, SVG Export Plug-In . SVG Version: 6.00 Build 0)  -->
<svg version="1.1" id="Слой_1" xmlns="http://www.w3.org/2000/svg" xmlns:xlink="http://www.w3.org/1999/xlink" x="0px" y="0px"
	 viewBox="0 0 16 16" style="enable-background:new 0 0 16 16;" xml:space="preserve">
<path d="M8,0C5.8,0,5.5,0,4.7,0.1c-0.9,0-1.4,0.1-1.9,0.3c-0.5,0.2-1,0.5-1.4,0.9S0.6,2.2,0.4,2.8C0.2,3.3,0.1,3.8,0.1,4.7
	C0,5.5,0,5.8,0,8s0,2.5,0.1,3.3c0,0.9,0.1,1.4,0.3,1.9c0.2,0.5,0.5,1,0.9,1.4s0.9,0.7,1.4,0.9c0.5,0.2,1.1,0.3,1.9,0.3
	C5.5,16,5.8,16,8,16s2.5,0,3.3-0.1c0.9,0,1.4-0.1,1.9-0.3c0.5-0.2,1-0.5,1.4-0.9s0.7-0.9,0.9-1.4c0.2-0.5,0.3-1.1,0.3-1.9
	C16,10.5,16,10.2,16,8s0-2.5-0.1-3.3c0-0.9-0.1-1.4-0.3-1.9c-0.2-0.5-0.5-1-0.9-1.4s-0.9-0.7-1.4-0.9c-0.5-0.2-1.1-0.3-1.9-0.3
	C10.5,0,10.2,0,8,0z M8,1.4c2.1,0,2.4,0,3.2,0.1c0.8,0,1.2,0.1,1.5,0.2c0.4,0.1,0.6,0.3,0.9,0.6c0.3,0.3,0.5,0.5,0.6,0.9
	c0.1,0.3,0.2,0.7,0.2,1.5c0,0.8,0.1,1.1,0.1,3.2s0,2.4-0.1,3.2c0,0.8-0.1,1.2-0.2,1.5c-0.1,0.4-0.3,0.6-0.6,0.9
	c-0.3,0.3-0.5,0.5-0.9,0.6c-0.3,0.1-0.7,0.2-1.5,0.2c-0.8,0-1.1,0.1-3.2,0.1s-2.4,0-3.2-0.1c-0.8,0-1.2-0.1-1.5-0.2
	c-0.4-0.1-0.6-0.3-0.9-0.6c-0.3-0.3-0.5-0.5-0.6-0.9c-0.1-0.3-0.2-0.7-0.2-1.5c0-0.8-0.1-1.1-0.1-3.2s0-2.4,0.1-3.2
	c0-0.8,0.1-1.2,0.2-1.5c0.1-0.4,0.3-0.6,0.6-0.9s0.5-0.5,0.9-0.6C3.6,1.6,4,1.5,4.8,1.5C5.6,1.5,5.9,1.4,8,1.4z M12.3,2.8
	c-0.5,0-1,0.4-1,0.9s0.4,1,1,1c0.5,0,0.9-0.4,0.9-1S12.8,2.8,12.3,2.8z M8,3.9C5.7,3.9,3.9,5.7,3.9,8s1.8,4.1,4.1,4.1
	s4.1-1.8,4.1-4.1S10.3,3.9,8,3.9z M8,5.3c1.5,0,2.7,1.2,2.7,2.7c0,1.5-1.2,2.7-2.7,2.7S5.3,9.5,5.3,8C5.3,6.5,6.5,5.3,8,5.3z"/>
</svg>
