<?xml version="1.0" encoding="utf-8"?>
<!-- Generator: Adobe Illustrator 21.1.0, SVG Export Plug-In . SVG Version: 6.00 Build 0)  -->
<svg version="1.1" id="Слой_1" xmlns="http://www.w3.org/2000/svg" xmlns:xlink="http://www.w3.org/1999/xlink" x="0px" y="0px"
	 viewBox="0 0 16 16" enable-background="new 0 0 16 16" xml:space="preserve">
<g id="_x35_6-interface_-_like_heart_love">
	<g>
		<path fill="#0F2841" d="M11.5,0C10,0,8,2.6,8,2.6S6,0,4.5,0C1.5,0,0,1.5,0,4.7C0,7.7,8,16,8,16s8-8.4,8-11.3C16,1.5,14.5,0,11.5,0
			z M1,4.8C1,2.2,1.8,1,4.5,1C5.3,1,8,3.6,8,3.6S10.7,1,11.5,1C14.2,1,15,2.2,15,4.8c0,2.5-7,9.6-7,9.6S1,7.3,1,4.8z"/>
	</g>
</g>
</svg>
