<?xml version="1.0" encoding="utf-8"?>
<!-- Generator: Adobe Illustrator 21.1.0, SVG Export Plug-In . SVG Version: 6.00 Build 0)  -->
<svg version="1.1" id="Слой_1" xmlns="http://www.w3.org/2000/svg" xmlns:xlink="http://www.w3.org/1999/xlink" x="0px" y="0px"
	 viewBox="0 0 16 16" enable-background="new 0 0 16 16" xml:space="preserve">
<g id="_x39_-tool_-_magnifier_magnificent">
	<g>
		<path fill="#0CAAFE" d="M15.8,15.1L13,12.3c-0.2,0.3-0.5,0.5-0.7,0.7l2.8,2.8c0.2,0.2,0.5,0.2,0.7,0S16,15.3,15.8,15.1z M7,0
			C3.1,0,0,3.1,0,7c0,3.9,3.1,7,7,7c3.9,0,7-3.1,7-7C14,3.1,10.9,0,7,0z M7,13c-3.3,0-6-2.7-6-6c0-3.3,2.7-6,6-6c3.3,0,6,2.7,6,6
			C13,10.3,10.3,13,7,13z"/>
	</g>
</g>
</svg>
