<?xml version="1.0" encoding="utf-8"?>
<!-- Generator: Adobe Illustrator 21.1.0, SVG Export Plug-In . SVG Version: 6.00 Build 0)  -->
<svg version="1.1" id="Слой_1" xmlns="http://www.w3.org/2000/svg" xmlns:xlink="http://www.w3.org/1999/xlink" x="0px" y="0px"
	 viewBox="0 0 60 60" enable-background="new 0 0 60 60" xml:space="preserve">
<g>
	<g>
		<path fill="#0CAAFE" d="M30,46c-8.8,0-16-7.2-16-16s7.2-16,16-16s16,7.2,16,16S38.8,46,30,46z M30,16c-7.7,0-14,6.3-14,14
			s6.3,14,14,14s14-6.3,14-14S37.7,16,30,16z"/>
	</g>
	<g>
		<path fill="#0CAAFE" d="M11,31H3c-0.6,0-1-0.4-1-1s0.4-1,1-1h8c0.6,0,1,0.4,1,1S11.6,31,11,31z"/>
	</g>
	<g>
		<path fill="#0CAAFE" d="M57,31h-8c-0.6,0-1-0.4-1-1s0.4-1,1-1h8c0.6,0,1,0.4,1,1S57.6,31,57,31z"/>
	</g>
	<g>
		<path fill="#0CAAFE" d="M30,58c-0.6,0-1-0.4-1-1v-8c0-0.6,0.4-1,1-1s1,0.4,1,1v8C31,57.6,30.6,58,30,58z"/>
	</g>
	<g>
		<path fill="#0CAAFE" d="M30,12c-0.6,0-1-0.4-1-1V4c0-0.6,0.4-1,1-1s1,0.4,1,1v7C31,11.6,30.6,12,30,12z"/>
	</g>
	<g>
		<path fill="#0CAAFE" d="M16.9,17.7c-0.3,0-0.5-0.1-0.7-0.3l-5.7-5.7c-0.4-0.4-0.4-1,0-1.4s1-0.4,1.4,0l5.7,5.7
			c0.4,0.4,0.4,1,0,1.4C17.4,17.6,17.2,17.7,16.9,17.7z"/>
	</g>
	<g>
		<path fill="#0CAAFE" d="M49.4,50.2c-0.3,0-0.5-0.1-0.7-0.3l-5.7-5.7c-0.4-0.4-0.4-1,0-1.4s1-0.4,1.4,0l5.7,5.7
			c0.4,0.4,0.4,1,0,1.4C50,50.1,49.7,50.2,49.4,50.2z"/>
	</g>
	<g>
		<path fill="#0CAAFE" d="M11.3,50.2c-0.3,0-0.5-0.1-0.7-0.3c-0.4-0.4-0.4-1,0-1.4l5.7-5.7c0.4-0.4,1-0.4,1.4,0s0.4,1,0,1.4L12,49.9
			C11.8,50.1,11.5,50.2,11.3,50.2z"/>
	</g>
	<g>
		<path fill="#0CAAFE" d="M43.8,17.7c-0.3,0-0.5-0.1-0.7-0.3c-0.4-0.4-0.4-1,0-1.4l4.9-4.9c0.4-0.4,1-0.4,1.4,0s0.4,1,0,1.4
			l-4.9,4.9C44.3,17.6,44,17.7,43.8,17.7z"/>
	</g>
	<g>
		<path fill="#0CAAFE" d="M47.6,23.7c-0.4,0-0.8-0.2-0.9-0.6c-0.2-0.5,0-1.1,0.5-1.3l3.7-1.5c0.5-0.2,1.1,0,1.3,0.5
			c0.2,0.5,0,1.1-0.5,1.3l-3.7,1.5C47.8,23.7,47.7,23.7,47.6,23.7z"/>
	</g>
	<g>
		<path fill="#0CAAFE" d="M54.9,20.7c-0.4,0-0.8-0.2-0.9-0.6c-0.2-0.5,0-1.1,0.5-1.3l4.1-1.7c0.5-0.2,1.1,0,1.3,0.5s0,1.1-0.5,1.3
			l-4.1,1.7C55.2,20.6,55.1,20.7,54.9,20.7z"/>
	</g>
	<g>
		<path fill="#0CAAFE" d="M37.3,13.4c-0.1,0-0.3,0-0.4-0.1c-0.5-0.2-0.8-0.8-0.5-1.3l1.5-3.7c0.2-0.5,0.8-0.8,1.3-0.5
			c0.5,0.2,0.8,0.8,0.5,1.3l-1.5,3.7C38,13.2,37.7,13.4,37.3,13.4z"/>
	</g>
	<g>
		<path fill="#0CAAFE" d="M40.3,6.1c-0.1,0-0.3,0-0.4-0.1c-0.5-0.2-0.8-0.8-0.5-1.3l1.7-4.1c0.2-0.5,0.8-0.8,1.3-0.5
			c0.5,0.2,0.8,0.8,0.5,1.3l-1.7,4.1C41.1,5.8,40.7,6.1,40.3,6.1z"/>
	</g>
	<g>
		<path fill="#0CAAFE" d="M22.7,13.4c-0.4,0-0.8-0.2-0.9-0.6l-1.5-3.7c-0.2-0.5,0-1.1,0.5-1.3c0.5-0.2,1.1,0,1.3,0.5l1.5,3.7
			c0.2,0.5,0,1.1-0.5,1.3C23,13.4,22.9,13.4,22.7,13.4z"/>
	</g>
	<g>
		<path fill="#0CAAFE" d="M19.7,6.1c-0.4,0-0.8-0.2-0.9-0.6l-1.7-4.1c-0.2-0.5,0-1.1,0.5-1.3c0.5-0.2,1.1,0,1.3,0.5l1.7,4.1
			c0.2,0.5,0,1.1-0.5,1.3C19.9,6,19.8,6.1,19.7,6.1z"/>
	</g>
	<g>
		<path fill="#0CAAFE" d="M12.4,23.7c-0.1,0-0.3,0-0.4-0.1l-3.7-1.5c-0.5-0.2-0.8-0.8-0.5-1.3c0.2-0.5,0.8-0.8,1.3-0.5l3.7,1.5
			c0.5,0.2,0.8,0.8,0.5,1.3C13.2,23.5,12.8,23.7,12.4,23.7z"/>
	</g>
	<g>
		<path fill="#0CAAFE" d="M5.1,20.7c-0.1,0-0.3,0-0.4-0.1l-4.1-1.7c-0.5-0.2-0.8-0.8-0.5-1.3c0.2-0.5,0.8-0.8,1.3-0.5l4.1,1.7
			C5.9,19,6.2,19.5,6,20C5.8,20.4,5.4,20.7,5.1,20.7z"/>
	</g>
	<g>
		<path fill="#0CAAFE" d="M8.8,39.8c-0.4,0-0.8-0.2-0.9-0.6c-0.2-0.5,0-1.1,0.5-1.3l3.7-1.5c0.5-0.2,1.1,0,1.3,0.5
			c0.2,0.5,0,1.1-0.5,1.3l-3.7,1.5C9,39.8,8.9,39.8,8.8,39.8z"/>
	</g>
	<g>
		<path fill="#0CAAFE" d="M1,43c-0.4,0-0.8-0.2-0.9-0.6c-0.2-0.5,0-1.1,0.5-1.3l4.1-1.7c0.5-0.2,1.1,0,1.3,0.5
			c0.2,0.5,0,1.1-0.5,1.3l-4.1,1.7C1.3,43,1.1,43,1,43z"/>
	</g>
	<g>
		<path fill="#0CAAFE" d="M21.2,52.2c-0.1,0-0.3,0-0.4-0.1c-0.5-0.2-0.8-0.8-0.5-1.3l1.5-3.7c0.2-0.5,0.8-0.8,1.3-0.5
			c0.5,0.2,0.8,0.8,0.5,1.3l-1.5,3.7C22,52,21.6,52.2,21.2,52.2z"/>
	</g>
	<g>
		<path fill="#0CAAFE" d="M18,60c-0.1,0-0.3,0-0.4-0.1c-0.5-0.2-0.8-0.8-0.5-1.3l1.7-4.1c0.2-0.5,0.8-0.8,1.3-0.5
			c0.5,0.2,0.8,0.8,0.5,1.3l-1.7,4.1C18.8,59.8,18.4,60,18,60z"/>
	</g>
	<g>
		<path fill="#0CAAFE" d="M38.8,52.2c-0.4,0-0.8-0.2-0.9-0.6l-1.5-3.7c-0.2-0.5,0-1.1,0.5-1.3c0.5-0.2,1.1,0,1.3,0.5l1.5,3.7
			c0.2,0.5,0,1.1-0.5,1.3C39.1,52.2,38.9,52.2,38.8,52.2z"/>
	</g>
	<g>
		<path fill="#0CAAFE" d="M42,59.9c-0.4,0-0.8-0.2-0.9-0.6l-1.7-4c-0.2-0.5,0-1.1,0.5-1.3c0.5-0.2,1.1,0,1.3,0.5l1.7,4
			c0.2,0.5,0,1.1-0.5,1.3C42.3,59.9,42.1,59.9,42,59.9z"/>
	</g>
	<g>
		<path fill="#0CAAFE" d="M51.2,39.8c-0.1,0-0.3,0-0.4-0.1l-3.7-1.5c-0.5-0.2-0.8-0.8-0.5-1.3s0.8-0.8,1.3-0.5l3.7,1.5
			c0.5,0.2,0.8,0.8,0.5,1.3C52,39.6,51.6,39.8,51.2,39.8z"/>
	</g>
	<g>
		<path fill="#0CAAFE" d="M59,43c-0.1,0-0.3,0-0.4-0.1l-4.1-1.7C54.1,41,53.8,40.5,54,40s0.8-0.8,1.3-0.5l4.1,1.7
			c0.5,0.2,0.8,0.8,0.5,1.3C59.8,42.8,59.4,43,59,43z"/>
	</g>
	<g>
		<path fill="#0CAAFE" d="M39.8,26c-0.4,0-0.7-0.2-0.9-0.5c-0.8-1.6-2-2.9-3.5-3.9c-0.5-0.3-0.6-0.9-0.3-1.4
			c0.3-0.5,0.9-0.6,1.4-0.3c1.8,1.2,3.2,2.8,4.2,4.6c0.3,0.5,0.1,1.1-0.4,1.3C40.1,26,40,26,39.8,26z"/>
	</g>
</g>
</svg>
