<?xml version="1.0" encoding="utf-8"?>
<!-- Generator: Adobe Illustrator 21.1.0, SVG Export Plug-In . SVG Version: 6.00 Build 0)  -->
<svg version="1.1" id="Слой_1" xmlns="http://www.w3.org/2000/svg" xmlns:xlink="http://www.w3.org/1999/xlink" x="0px" y="0px"
	 viewBox="0 0 16 16" enable-background="new 0 0 16 16" xml:space="preserve">
<g id="_x33_2-user_-_single">
	<g>
		<path fill="#0F2841" d="M8,0C3.6,0,0,3.6,0,8c0,4.4,3.6,8,8,8c4.4,0,8-3.6,8-8C16,3.6,12.4,0,8,0z M8,15c-1.5,0-3-0.5-4.1-1.4
			c0.2-0.3,0.6-0.9,1.1-1.5c0.4-0.4,0.9-0.8,1.4-1.2c0.5,0.3,1,0.5,1.6,0.5s1.1-0.2,1.6-0.5c0.4,0.3,1,0.8,1.4,1.2
			c0.6,0.6,0.9,1.1,1.1,1.5C11,14.5,9.5,15,8,15z M5.5,7.3C5.5,5.5,6.6,4,8,4s2.5,1.5,2.5,3.2c0,1.8-1.1,3.2-2.5,3.2S5.5,9,5.5,7.3z
			 M12.9,13c-0.2-0.3-0.5-0.9-1.1-1.5c-0.4-0.4-0.9-0.8-1.3-1.2c0.7-0.8,1.1-1.9,1.1-3.1C11.5,4.9,9.9,3,8,3S4.5,4.9,4.5,7.3
			c0,1.2,0.4,2.3,1.1,3.1c-0.4,0.3-0.9,0.8-1.3,1.2c-0.6,0.6-1,1.2-1.1,1.5C1.8,11.8,1,10,1,8c0-3.9,3.1-7,7-7c3.9,0,7,3.1,7,7
			C15,10,14.2,11.8,12.9,13z"/>
	</g>
</g>
</svg>
