<?xml version="1.0" encoding="utf-8"?>
<!-- Generator: Adobe Illustrator 21.1.0, SVG Export Plug-In . SVG Version: 6.00 Build 0)  -->
<svg version="1.1" id="Vkontakte" xmlns="http://www.w3.org/2000/svg" xmlns:xlink="http://www.w3.org/1999/xlink" x="0px" y="0px"
	 viewBox="0 0 30 18" enable-background="new 0 0 30 18" xml:space="preserve">
<path id="VK" d="M16,18c1,0,1-1.4,1-2c0-1,1-2,2-2s2.7,1.7,4,3c1,1,1,1,2,1s3,0,3,0s2-0.1,2-2c0-0.6-0.7-1.7-3-4c-2-2-3-1,0-5
	c1.8-2.5,3.2-4.7,3-5.3c-0.2-0.6-5.3-1.6-6-0.7c-2,3-2.4,3.7-3,5c-1,2-1.1,3-2,3c-0.9,0-1-1.9-1-3c0-3.3,0.5-5.6-1-6c0,0-2,0-3,0
	c-1.6,0-3,1-3,1s-1.2,1-1,1c0.3,0,2-0.4,2,1c0,1,0,2,0,2s0,4-1,4c-1,0-3-4-5-7C5.3,0.8,5,1,4,1C3,1,2,1,1,1C0,1-0.1,1.7,0,2
	c2,5,3.4,8.1,7.2,12.1c3.5,3.6,5.8,3.8,7.8,3.9C15.5,18,15,18,16,18z"/>

</svg>
