<svg width="16" height="16" viewBox="0 0 16 16" xmlns="http://www.w3.org/2000/svg">
    <title>
        inst
    </title>
    <defs>
        <linearGradient x1="12.344%" y1="89.611%" x2="91.22%" y2="9.889%" id="a">
            <stop stop-color="#FBBE3B" offset="0%"/>
            <stop stop-color="#F41004" offset="62.941%"/>
            <stop stop-color="#BB008D" offset="100%"/>
        </linearGradient>
    </defs>
    <path d="M8 0C5.8 0 5.5 0 4.7.1c-.9 0-1.4.1-1.9.3-.5.2-1 .5-1.4.9-.4.4-.8.9-1 1.5-.2.5-.3 1-.3 1.9C0 5.5 0 5.8 0 8c0 2.2 0 2.5.1 3.3 0 .9.1 1.4.3 1.9.2.5.5 1 .9 1.4.4.4.9.7 1.4.9.5.2 1.1.3 1.9.3.9.2 1.2.2 3.4.2s2.5 0 3.3-.1c.9 0 1.4-.1 1.9-.3.5-.2 1-.5 1.4-.9.4-.4.7-.9.9-1.4.2-.5.3-1.1.3-1.9.2-.9.2-1.2.2-3.4s0-2.5-.1-3.3c0-.9-.1-1.4-.3-1.9-.2-.5-.5-1-.9-1.4-.4-.4-.9-.7-1.4-.9-.5-.2-1.1-.3-1.9-.3C10.5 0 10.2 0 8 0zm0 1.4c2.1 0 2.4 0 3.2.1.8 0 1.2.1 1.5.2.4.1.6.3.9.6.3.3.5.5.6.9.1.3.2.7.2 1.5s.1 1.1.1 3.2 0 2.4-.1 3.2c0 .8-.1 1.2-.2 1.5-.1.4-.3.6-.6.9-.3.3-.5.5-.9.6-.3.1-.7.2-1.5.2s-1.1.1-3.2.1-2.4 0-3.2-.1c-.8 0-1.2-.1-1.5-.2-.4-.1-.6-.3-.9-.6-.3-.3-.5-.5-.6-.9-.1-.3-.2-.7-.2-1.5s-.1-1.1-.1-3.2 0-2.4.1-3.2c0-.8.1-1.2.2-1.5.1-.4.3-.6.6-.9.3-.3.5-.5.9-.6.3-.1.7-.2 1.5-.2s1.1-.1 3.2-.1zm4.3 1.4c-.5 0-1 .4-1 .9s.4 1 1 1c.5 0 .9-.4.9-1s-.4-.9-.9-.9zM8 3.9C5.7 3.9 3.9 5.7 3.9 8s1.8 4.1 4.1 4.1 4.1-1.8 4.1-4.1S10.3 3.9 8 3.9zm0 1.4c1.5 0 2.7 1.2 2.7 2.7 0 1.5-1.2 2.7-2.7 2.7-1.5 0-2.7-1.2-2.7-2.7 0-1.5 1.2-2.7 2.7-2.7z" fill="url(#a)" fill-rule="nonzero"/>
</svg>
