<?xml version="1.0" encoding="UTF-8"?><!DOCTYPE svg PUBLIC "-//W3C//DTD SVG 1.1//EN" "http://www.w3.org/Graphics/SVG/1.1/DTD/svg11.dtd"><svg xmlns="http://www.w3.org/2000/svg"><defs>
        <style>
            .cls-1{fill:#4b5e71;stroke:#4b5e71;stroke-miterlimit:10}
        </style>
    
        <style>
            .cls-1{fill:#4b5e71;stroke:#4b5e71;stroke-miterlimit:10}
        </style>
    
        <linearGradient x1="12.344%" y1="89.611%" x2="91.22%" y2="9.889%" id="a">
            <stop stop-color="#FBBE3B" offset="0%"/>
            <stop stop-color="#F41004" offset="62.941%"/>
            <stop stop-color="#BB008D" offset="100%"/>
        </linearGradient>
    
        <style>
            .cls-1{fill:#4b5e71;stroke:#4b5e71;stroke-miterlimit:10}
        </style>
    
        <style>
            .cls-1{fill:#4b5e71;stroke:#4b5e71;stroke-miterlimit:10}
        </style>
    </defs><symbol id="icon-airplane" viewBox="0 0 60 48">
    <path d="M53 32H35.2c-.6 0-1-.4-1-1s.4-1 1-1H53c2.8 0 5-2.2 5-5s-2.2-5-5-5c-.5 0-.9-.4-1-.8 0-.2-.9-5.2-5-5.2H7.4c-.4 0-.8-.2-.9-.6l-2-5C4.4 8.1 4.1 8 4 8H2v7c0 8.4 6.6 15 15 15 .6 0 1 .4 1 1s-.4 1-1 1C7.5 32 0 24.5 0 15V8c0-1.1.9-2 2-2h2c1 0 2 .7 2.4 1.6L8.1 12H47c4.1 0 6.2 3.6 6.8 6 3.5.4 6.2 3.4 6.2 7 0 3.9-3.1 7-7 7z"/>
    <path d="M38 20c-1.1 0-2-.9-2-2s.9-2 2-2 2 .9 2 2-.9 2-2 2zm0-2z"/>
    <path d="M32 20c-1.1 0-2-.9-2-2s.9-2 2-2 2 .9 2 2-.9 2-2 2zm0-2z"/>
    <path d="M26 20c-1.1 0-2-.9-2-2s.9-2 2-2 2 .9 2 2-.9 2-2 2zm0-2zm0 0zm0 0zm0 0zm0 0zm0 0zm0 0zm0 0z"/>
    <path d="M20 20c-1.1 0-2-.9-2-2s.9-2 2-2 2 .9 2 2-.9 2-2 2zm0-2zm0 0zm0 0zm0 0zm0 0zm0 0zm0 0zm0 0z"/>
    <path d="M14 20c-1.1 0-2-.9-2-2s.9-2 2-2 2 .9 2 2-.9 2-2 2zm0-2zm0 0zm0 0zm0 0zm0 0zm0 0zm0 0zm0 0z"/>
    <path d="M49 20h-2.5c-1.5 0-2.8-1-3.5-2.6v-.1l-1-4c-.1-.5.2-1.1.7-1.2.5-.1 1.1.2 1.2.7l1 3.9c.2.4.6 1.3 1.6 1.3H49c.6 0 1 .4 1 1s-.4 1-1 1z"/>
    <path d="M26.5 48H22c-1.1 0-2-.9-2-2V27c0-.6.4-1 1-1h12c.6 0 1 .4 1 1s-.4 1-1 1H22v18h4.5c.1 0 .5-.2.6-.4l9-19c.2-.5.8-.7 1.3-.5.5.2.7.8.5 1.3l-9 19c-.4.9-1.4 1.6-2.4 1.6z"/>
    <path d="M53 28H41c-.6 0-1-.4-1-1s.4-1 1-1h12c.6 0 1 .4 1 1s-.4 1-1 1z"/>
    <path d="M26.5 48H22c-1.1 0-2-.9-2-2V27c0-.6.4-1 1-1h12c.6 0 1 .4 1 1s-.4 1-1 1H22v18h4.5c.1 0 .5-.2.6-.4l9-19c.2-.5.8-.7 1.3-.5.5.2.7.8.5 1.3l-9 19c-.4.9-1.4 1.6-2.4 1.6z"/>
    <path d="M31 10c-.4 0-.8-.2-.9-.6l-3-7c-.1-.2-.4-.4-.6-.4H22v7c0 .6-.4 1-1 1s-1-.4-1-1V2c0-1.1.9-2 2-2h4.5c1 0 2 .7 2.4 1.6l3 7c.2.5 0 1.1-.5 1.3-.1.1-.3.1-.4.1z"/>
    <path d="M15 2h-2c-.6 0-1-.4-1-1s.4-1 1-1h2c.6 0 1 .4 1 1s-.4 1-1 1z"/>
    <path d="M15 8h-4c-.6 0-1-.4-1-1s.4-1 1-1h4c.6 0 1 .4 1 1s-.4 1-1 1z"/>
    <path d="M15 36H9c-.6 0-1-.4-1-1s.4-1 1-1h6c.6 0 1 .4 1 1s-.4 1-1 1z"/>
    <path d="M15 42H5c-.6 0-1-.4-1-1s.4-1 1-1h10c.6 0 1 .4 1 1s-.4 1-1 1z"/>
    <path d="M15 48h-4c-.6 0-1-.4-1-1s.4-1 1-1h4c.6 0 1 .4 1 1s-.4 1-1 1z"/>
</symbol><symbol id="icon-angle-up" viewBox="0 0 512 221.1">
    <path d="M37.2 216.4L256 52.4l218.8 164.1c10.3 7.7 24.9 5.6 32.6-4.7 7.7-10.3 5.6-24.9-4.7-32.6L270 4.7c-8.3-6.2-19.7-6.2-27.9 0L9.3 179.2C3.2 183.8 0 190.8 0 197.8c0 4.9 1.5 9.8 4.7 13.9 7.7 10.4 22.3 12.4 32.5 4.7z"/>
</symbol><symbol id="icon-arrow" viewBox="0 0 443.6 850.14">
    
    <title>
        arrow
    </title>
    <path class="cls-1" transform="rotate(45 727.534 -567.905)" d="M628.16 335.62h600v24.99h-600z"/>
    <path class="cls-1" transform="rotate(-45 422.543 1544.477)" d="M628.41 742.4h600v25h-600z"/>
</symbol><symbol id="icon-business" viewBox="0 0 15 15">
    <path d="M0 15h3V7H0v8zm1-7h1v6H1V8zm3 7h3V2H4v13zM5 3h1v11H5V3zm7 2v10h3V5h-3zm2 9h-1V6h1v8zm-6 1h3V0H8v15zM9 1h1v13H9V1z"/>
</symbol><symbol id="icon-calendar" viewBox="0 0 60 60">
    <path d="M1 10c-.6 0-1-.4-1-1V7c0-2.6 2.4-5 5-5h4c.6 0 1 .4 1 1s-.4 1-1 1H5C3.5 4 2 5.5 2 7v2c0 .6-.4 1-1 1z"/>
    <path d="M59 39c-.6 0-1-.4-1-1V7c0-1.5-1.5-3-3-3h-4c-.6 0-1-.4-1-1s.4-1 1-1h4c2.6 0 5 2.4 5 5v31c0 .6-.4 1-1 1z"/>
    <path d="M38 60H5c-2.6 0-5-2.4-5-5V13c0-.6.4-1 1-1h54c.6 0 1 .4 1 1s-.4 1-1 1H2v41c0 1.5 1.5 3 3 3h33c.6 0 1 .4 1 1s-.4 1-1 1z"/>
    <path d="M36 56H8c-2.2 0-4-1.8-4-4V17c0-.6.4-1 1-1h50c.6 0 1 .4 1 1v19c0 .6-.4 1-1 1s-1-.4-1-1V18H6v34c0 1.1.9 2 2 2h28c.6 0 1 .4 1 1s-.4 1-1 1z"/>
    <path d="M15 10c-1.7 0-3-1.3-3-3V3c0-1.7 1.3-3 3-3s3 1.3 3 3v4c0 1.7-1.3 3-3 3zm0-8c-.6 0-1 .4-1 1v4c0 .6.4 1 1 1s1-.4 1-1V3c0-.6-.4-1-1-1z"/>
    <path d="M25 10c-1.7 0-3-1.3-3-3V3c0-1.7 1.3-3 3-3s3 1.3 3 3v4c0 1.7-1.3 3-3 3zm0-8c-.6 0-1 .4-1 1v4c0 .6.4 1 1 1s1-.4 1-1V3c0-.6-.4-1-1-1z"/>
    <path d="M35 10c-1.7 0-3-1.3-3-3V3c0-1.7 1.3-3 3-3s3 1.3 3 3v4c0 1.7-1.3 3-3 3zm0-8c-.6 0-1 .4-1 1v4c0 .6.4 1 1 1s1-.4 1-1V3c0-.6-.4-1-1-1z"/>
    <path d="M45 10c-1.7 0-3-1.3-3-3V3c0-1.7 1.3-3 3-3s3 1.3 3 3v4c0 1.7-1.3 3-3 3zm0-8c-.6 0-1 .4-1 1v4c0 .6.4 1 1 1s1-.4 1-1V3c0-.6-.4-1-1-1z"/>
    <path d="M17 28h-4c-.6 0-1-.4-1-1v-4c0-.6.4-1 1-1h4c.6 0 1 .4 1 1v4c0 .6-.4 1-1 1zm-3-2h2v-2h-2v2z"/>
    <path d="M17 38h-4c-.6 0-1-.4-1-1v-4c0-.6.4-1 1-1h4c.6 0 1 .4 1 1v4c0 .6-.4 1-1 1zm-3-2h2v-2h-2v2z"/>
    <path d="M27 28h-4c-.6 0-1-.4-1-1v-4c0-.6.4-1 1-1h4c.6 0 1 .4 1 1v4c0 .6-.4 1-1 1zm-3-2h2v-2h-2v2z"/>
    <path d="M27 38h-4c-.6 0-1-.4-1-1v-4c0-.6.4-1 1-1h4c.6 0 1 .4 1 1v4c0 .6-.4 1-1 1zm-3-2h2v-2h-2v2z"/>
    <path d="M37 38h-4c-.6 0-1-.4-1-1v-4c0-.6.4-1 1-1h4c.6 0 1 .4 1 1v4c0 .6-.4 1-1 1zm-3-2h2v-2h-2v2z"/>
    <path d="M47 36c-.6 0-1-.4-1-1v-1h-2v1c0 .6-.4 1-1 1s-1-.4-1-1v-2c0-.6.4-1 1-1h4c.6 0 1 .4 1 1v2c0 .6-.4 1-1 1z"/>
    <path d="M37 28h-4c-.6 0-1-.4-1-1v-4c0-.6.4-1 1-1h4c.6 0 1 .4 1 1v4c0 .6-.4 1-1 1zm-3-2h2v-2h-2v2z"/>
    <path d="M17 48h-4c-.6 0-1-.4-1-1v-4c0-.6.4-1 1-1h4c.6 0 1 .4 1 1v4c0 .6-.4 1-1 1zm-3-2h2v-2h-2v2z"/>
    <path d="M27 48h-4c-.6 0-1-.4-1-1v-4c0-.6.4-1 1-1h4c.6 0 1 .4 1 1v4c0 .6-.4 1-1 1zm-3-2h2v-2h-2v2z"/>
    <path d="M47 28h-4c-.6 0-1-.4-1-1v-4c0-.6.4-1 1-1h4c.6 0 1 .4 1 1v4c0 .6-.4 1-1 1zm-3-2h2v-2h-2v2z"/>
    <path d="M49 60c-6.1 0-11-4.9-11-11s4.9-11 11-11 11 4.9 11 11-4.9 11-11 11zm0-20c-5 0-9 4-9 9s4 9 9 9 9-4 9-9-4-9-9-9z"/>
    <path d="M55 50h-6c-.6 0-1-.4-1-1v-4c0-.6.4-1 1-1s1 .4 1 1v3h5c.6 0 1 .4 1 1s-.4 1-1 1z"/>
    <path d="M35 48h-2c-.6 0-1-.4-1-1v-4c0-.6.4-1 1-1h2c.6 0 1 .4 1 1s-.4 1-1 1h-1v2h1c.6 0 1 .4 1 1s-.4 1-1 1z"/>
</symbol><symbol id="icon-cart" viewBox="0 0 16 15">
    <path d="M7 13c-.6 0-1 .4-1 1s.4 1 1 1 1-.4 1-1-.4-1-1-1zm9-8.4c0-.1 0-.1 0 0v-.3s0-.1-.1-.1l-.2-.2H5L4 .4c0-.3-.2-.4-.5-.4h-3C.2 0 0 .2 0 .5s.2.5.5.5h2.6L4 4.4v.1c0 .1.1.2.1.3l1.8 6.8c.1.3.3.4.6.4h7.1c.2 0 .4-.2.4-.5v-.1l2-6.8zM13.1 11H6.9L5.3 5h9.6l-1.8 6zM12 13c-.6 0-1 .4-1 1s.4 1 1 1 1-.4 1-1-.4-1-1-1z"/>
</symbol><symbol id="icon-check-list" viewBox="0 0 61 60">
    <path d="M38 60H10c-2.6 0-5-2.4-5-5V9c0-2.6 2.4-5 5-5h6c.6 0 1 .4 1 1s-.4 1-1 1h-6C8.5 6 7 7.5 7 9v46c0 1.5 1.5 3 3 3h28c.6 0 1 .4 1 1s-.4 1-1 1z"/>
    <path d="M56 36c-.6 0-1-.4-1-1V9c0-1.5-1.5-3-3-3h-6c-.6 0-1-.4-1-1s.4-1 1-1h6c2.6 0 5 2.4 5 5v26c0 .6-.4 1-1 1z"/>
    <path d="M36 56H13c-2.2 0-4-1.8-4-4V9c0-.6.4-1 1-1h6c.6 0 1 .4 1 1s-.4 1-1 1h-5v42c0 1.1.9 2 2 2h23c.6 0 1 .4 1 1s-.4 1-1 1z"/>
    <path d="M52 36c-.6 0-1-.4-1-1V10h-5c-.6 0-1-.4-1-1s.4-1 1-1h6c.6 0 1 .4 1 1v26c0 .6-.4 1-1 1z"/>
    <path d="M31 8c-1.1 0-2-.9-2-2s.9-2 2-2 2 .9 2 2-.9 2-2 2zm0-2z"/>
    <path d="M42 12H20c-.6 0-1-.4-1-1V5c0-.6.4-1 1-1h5.3c.8-2.4 3.1-4 5.7-4s4.8 1.6 5.7 4H42c.6 0 1 .4 1 1v6c0 .6-.4 1-1 1zm-21-2h20V6h-5.1c-.5 0-.9-.3-1-.8-.4-1.9-2-3.2-3.9-3.2s-3.5 1.3-3.9 3.2c-.1.5-.5.8-1 .8H21v4z"/>
    <path d="M20 22h-2c-.6 0-1-.4-1-1s.4-1 1-1h2c.6 0 1 .4 1 1s-.4 1-1 1z"/>
    <path d="M20 28h-2c-.6 0-1-.4-1-1s.4-1 1-1h2c.6 0 1 .4 1 1s-.4 1-1 1z"/>
    <path d="M20 34h-2c-.6 0-1-.4-1-1s.4-1 1-1h2c.6 0 1 .4 1 1s-.4 1-1 1z"/>
    <path d="M20 40h-2c-.6 0-1-.4-1-1s.4-1 1-1h2c.6 0 1 .4 1 1s-.4 1-1 1z"/>
    <path d="M20 46h-2c-.6 0-1-.4-1-1s.4-1 1-1h2c.6 0 1 .4 1 1s-.4 1-1 1z"/>
    <path d="M42 22H26c-.6 0-1-.4-1-1s.4-1 1-1h16c.6 0 1 .4 1 1s-.4 1-1 1z"/>
    <path d="M40 28H26c-.6 0-1-.4-1-1s.4-1 1-1h14c.6 0 1 .4 1 1s-.4 1-1 1z"/>
    <path d="M44 34H26c-.6 0-1-.4-1-1s.4-1 1-1h18c.6 0 1 .4 1 1s-.4 1-1 1z"/>
    <path d="M38 40H26c-.6 0-1-.4-1-1s.4-1 1-1h12c.6 0 1 .4 1 1s-.4 1-1 1z"/>
    <path d="M34 46h-8c-.6 0-1-.4-1-1s.4-1 1-1h8c.6 0 1 .4 1 1s-.4 1-1 1z"/>
    <path d="M49 53c-.3 0-.5-.1-.7-.3l-3-3c-.4-.4-.4-1 0-1.4s1-.4 1.4 0l2.3 2.3 4.3-4.3c.4-.4 1-.4 1.4 0s.4 1 0 1.4l-5 5c-.2.2-.4.3-.7.3z"/>
    <path d="M50 60c-6.1 0-11-4.9-11-11s4.9-11 11-11 11 4.9 11 11-4.9 11-11 11zm0-20c-5 0-9 4-9 9s4 9 9 9 9-4 9-9-4-9-9-9z"/>
</symbol><symbol id="icon-check" viewBox="0 0 11 11">
    <style>
        .st0{fill:#979797}
    </style>
    <title>
        check
    </title>
    <g id="Page-1">
        <g id="check" transform="translate(0 1)">
            <path class="st0" d="M5.9 10c-.6 0-1 0-5.7-5.3l1.5-1.3c2.2 2.5 3.4 3.7 4 4.3.5-.9 1.5-3 3.4-7.8l1.9.7C7.1 10 6.7 10 5.9 10zm.3-1.9z" id="Path"/>
        </g>
    </g>
</symbol><symbol id="icon-classmates" viewBox="0 0 24 24">
    <title/>
    <g>
        <path d="M12 12a6 6 0 1 0-6-6 6 6 0 0 0 6 6zm0-9a3 3 0 1 1-3 3 3 3 0 0 1 3-3z"/>
        <path d="M18.8 15.52A2.66 2.66 0 0 0 20 13.3a1.94 1.94 0 0 0-2-2 2 2 0 0 0-1.21.41 8.06 8.06 0 0 1-9.65 0A2 2 0 0 0 6 11.35a1.94 1.94 0 0 0-2 2 2.66 2.66 0 0 0 1.2 2.22A12.31 12.31 0 0 0 8.33 17l.64.18-3.28 3.22a2.11 2.11 0 0 0 0 3 2.15 2.15 0 0 0 3 0L12 19.93l3.33 3.45a2.11 2.11 0 1 0 3-3L15 17.19l.65-.18a12.29 12.29 0 0 0 3.15-1.49z"/>
    </g>
</symbol><symbol id="icon-close" viewBox="0 0 461.03 461.03">
    
    <title>
        close
    </title>
    <path class="cls-1" transform="rotate(45 863.49 -392.67)" d="M556.57 470.57h600v50h-600z"/>
    <path class="cls-1" transform="rotate(-45 223.593 1118.755)" d="M556.57 470.57h600v50h-600z"/>
</symbol><symbol id="icon-docs" viewBox="0 0 52 60">
    <path d="M47 52H13c-2.8 0-5-2.2-5-5V5c0-2.8 2.2-5 5-5h26c.3 0 .5.1.7.3l8 8c.4.4.4 1 0 1.4s-1 .4-1.4 0L38.6 2H13c-1.7 0-3 1.3-3 3v42c0 1.7 1.3 3 3 3h34c1.7 0 3-1.3 3-3V14h-7c-2.8 0-5-2.2-5-5V6c0-.6.4-1 1-1s1 .4 1 1v3c0 1.7 1.3 3 3 3h8c.6 0 1 .4 1 1v34c0 2.8-2.2 5-5 5z"/>
    <path d="M45 56H9c-2.8 0-5-2.2-5-5V7c0-.6.4-1 1-1s1 .4 1 1v44c0 1.7 1.3 3 3 3h36c.6 0 1 .4 1 1s-.4 1-1 1z"/>
    <path d="M41 60H5c-2.8 0-5-2.2-5-5V11c0-.6.4-1 1-1s1 .4 1 1v44c0 1.7 1.3 3 3 3h36c.6 0 1 .4 1 1s-.4 1-1 1z"/>
    <path d="M31 16H19c-.6 0-1-.4-1-1s.4-1 1-1h12c.6 0 1 .4 1 1s-.4 1-1 1z"/>
    <path d="M25 24h-6c-.6 0-1-.4-1-1s.4-1 1-1h6c.6 0 1 .4 1 1s-.4 1-1 1z"/>
    <path d="M39 24H29c-.6 0-1-.4-1-1s.4-1 1-1h10c.6 0 1 .4 1 1s-.4 1-1 1z"/>
    <path d="M31 36H19c-.6 0-1-.4-1-1s.4-1 1-1h12c.6 0 1 .4 1 1s-.4 1-1 1z"/>
    <path d="M23 30h-4c-.6 0-1-.4-1-1s.4-1 1-1h4c.6 0 1 .4 1 1s-.4 1-1 1z"/>
    <path d="M29 30h-2c-.6 0-1-.4-1-1s.4-1 1-1h2c.6 0 1 .4 1 1s-.4 1-1 1z"/>
    <path d="M41 30h-8c-.6 0-1-.4-1-1s.4-1 1-1h8c.6 0 1 .4 1 1s-.4 1-1 1z"/>
    <path d="M23 42h-4c-.6 0-1-.4-1-1s.4-1 1-1h4c.6 0 1 .4 1 1s-.4 1-1 1z"/>
    <path d="M41 42H27c-.6 0-1-.4-1-1s.4-1 1-1h14c.6 0 1 .4 1 1s-.4 1-1 1z"/>
    <path d="M39 36h-4c-.6 0-1-.4-1-1s.4-1 1-1h4c.6 0 1 .4 1 1s-.4 1-1 1z"/>
</symbol><symbol id="icon-facebook" viewBox="0 0 22.4 48.3">
    <path d="M22.4 15.6h-7.6v-5c0-1.9 1.2-2.3 2.1-2.3h5.4V0h-7.4C6.6 0 4.8 6.2 4.8 10.1v5.5H0v8.5h4.8v24.1h10V24.1h6.8l.8-8.5z"/>
</symbol><symbol id="icon-fb" viewBox="0 0 80.6 155.1">
    <style>
        .st0{fill:#010002}
    </style>
    <path id="f_1_" class="st0" d="M52.3 155.1V84.4H76l3.6-27.6H52.3V39.2c0-8 2.2-13.4 13.7-13.4h14.6V1.1C78 .8 69.4 0 59.3 0 38.2 0 23.8 12.9 23.8 36.5v20.3H0v27.6h23.8v70.8h28.5z"/>
</symbol><symbol id="icon-googleplus" viewBox="0 0 24 15.3">
    <title>
        Google+ icon
    </title>
    <path d="M7.6 6.5v2.6H12c-.2 1.1-1.3 3.3-4.3 3.3-2.6 0-4.7-2.2-4.7-4.8C2.9 5 5 2.8 7.6 2.8c1.5 0 2.5.6 3 1.2l2.1-2C11.4.8 9.6 0 7.6 0 3.4 0 0 3.4 0 7.6s3.4 7.6 7.6 7.6c4.4 0 7.3-3.1 7.3-7.5 0-.5-.1-.9-.1-1.3 0 .1-7.2.1-7.2.1zm16.4 0h-2.2V4.4h-2.2v2.2h-2.2v2.2h2.2V11h2.2V8.7H24"/>
</symbol><symbol id="icon-inst" viewBox="0 0 16 16">
    <title>
        inst
    </title>
    
    <path d="M8 0C5.8 0 5.5 0 4.7.1c-.9 0-1.4.1-1.9.3-.5.2-1 .5-1.4.9-.4.4-.8.9-1 1.5-.2.5-.3 1-.3 1.9C0 5.5 0 5.8 0 8c0 2.2 0 2.5.1 3.3 0 .9.1 1.4.3 1.9.2.5.5 1 .9 1.4.4.4.9.7 1.4.9.5.2 1.1.3 1.9.3.9.2 1.2.2 3.4.2s2.5 0 3.3-.1c.9 0 1.4-.1 1.9-.3.5-.2 1-.5 1.4-.9.4-.4.7-.9.9-1.4.2-.5.3-1.1.3-1.9.2-.9.2-1.2.2-3.4s0-2.5-.1-3.3c0-.9-.1-1.4-.3-1.9-.2-.5-.5-1-.9-1.4-.4-.4-.9-.7-1.4-.9-.5-.2-1.1-.3-1.9-.3C10.5 0 10.2 0 8 0zm0 1.4c2.1 0 2.4 0 3.2.1.8 0 1.2.1 1.5.2.4.1.6.3.9.6.3.3.5.5.6.9.1.3.2.7.2 1.5s.1 1.1.1 3.2 0 2.4-.1 3.2c0 .8-.1 1.2-.2 1.5-.1.4-.3.6-.6.9-.3.3-.5.5-.9.6-.3.1-.7.2-1.5.2s-1.1.1-3.2.1-2.4 0-3.2-.1c-.8 0-1.2-.1-1.5-.2-.4-.1-.6-.3-.9-.6-.3-.3-.5-.5-.6-.9-.1-.3-.2-.7-.2-1.5s-.1-1.1-.1-3.2 0-2.4.1-3.2c0-.8.1-1.2.2-1.5.1-.4.3-.6.6-.9.3-.3.5-.5.9-.6.3-.1.7-.2 1.5-.2s1.1-.1 3.2-.1zm4.3 1.4c-.5 0-1 .4-1 .9s.4 1 1 1c.5 0 .9-.4.9-1s-.4-.9-.9-.9zM8 3.9C5.7 3.9 3.9 5.7 3.9 8s1.8 4.1 4.1 4.1 4.1-1.8 4.1-4.1S10.3 3.9 8 3.9zm0 1.4c1.5 0 2.7 1.2 2.7 2.7 0 1.5-1.2 2.7-2.7 2.7-1.5 0-2.7-1.2-2.7-2.7 0-1.5 1.2-2.7 2.7-2.7z" fill-rule="nonzero"/>
</symbol><symbol id="icon-instagram" viewBox="0 0 49.6 49.6">
    <path d="M24.8 11.9c-7 0-12.8 5.7-12.8 12.8s5.7 12.8 12.8 12.8 12.8-5.8 12.8-12.8-5.8-12.8-12.8-12.8zm0 21c-4.5 0-8.2-3.7-8.2-8.2s3.7-8.2 8.2-8.2 8.2 3.7 8.2 8.2-3.7 8.2-8.2 8.2z"/>
    <circle cx="38.1" cy="11.6" r="2.9"/>
    <path d="M45.6 4.1C43 1.4 39.3 0 35.1 0H14.5C5.8 0 0 5.8 0 14.5V35c0 4.3 1.4 8 4.2 10.7 2.7 2.6 6.3 3.9 10.4 3.9H35c4.3 0 7.9-1.4 10.5-3.9 2.7-2.6 4.1-6.3 4.1-10.6V14.5c0-4.2-1.4-7.8-4-10.4zm-.4 31c0 3.1-1.1 5.6-2.9 7.3S38 45 35 45H14.6c-3 0-5.5-.9-7.3-2.6-1.8-1.8-2.7-4.3-2.7-7.4V14.5c0-3 .9-5.5 2.7-7.3 1.7-1.7 4.3-2.6 7.3-2.6h20.6c3 0 5.5.9 7.3 2.7 1.7 1.8 2.7 4.3 2.7 7.2v20.6z"/>
</symbol><symbol id="icon-like" viewBox="0 0 16 16">
    <path d="M11.5 0C10 0 8 2.6 8 2.6S6 0 4.5 0C1.5 0 0 1.5 0 4.7 0 7.7 8 16 8 16s8-8.4 8-11.3C16 1.5 14.5 0 11.5 0zM1 4.8C1 2.2 1.8 1 4.5 1 5.3 1 8 3.6 8 3.6S10.7 1 11.5 1C14.2 1 15 2.2 15 4.8c0 2.5-7 9.6-7 9.6S1 7.3 1 4.8z"/>
</symbol><symbol id="icon-minus" viewBox="0 0 601 26">
    
    <title>
        minus
    </title>
    <path class="cls-1" d="M.5.5h600v25H.5z"/>
</symbol><symbol id="icon-plus" viewBox="0 0 601 601">
    
    <title>
        plus
    </title>
    <path class="cls-1" transform="rotate(-90 591 637.5)" d="M628 336h600v25H628z"/>
    <path class="cls-1" transform="rotate(-180 613.5 320)" d="M626.5 331.5h600v25h-600z"/>
</symbol><symbol id="icon-question" viewBox="0 0 612 612">
    <path d="M230.724 181.208a1489.01 1489.01 0 0 1-5.119 5.508c2.17-2.337 5.119-5.508 5.119-5.508z"/>
    <path d="M336.962 200.875c7.956 9.792 11.906 21.337 11.906 34.634 0 9.514-2.727 18.666-8.151 27.512-2.977 5.007-6.898 9.848-11.795 14.465l-16.301 16.107c-15.634 15.356-25.732 28.958-30.35 40.865-4.618 11.878-6.927 27.54-6.927 46.957h36.275c0-17.108 1.947-30.044 5.814-38.807 3.866-8.763 12.323-19.444 25.37-32.102 17.942-17.387 29.849-30.572 35.746-39.53s8.874-20.641 8.874-35.051c0-23.756-8.039-43.285-24.146-58.585-16.106-15.3-37.526-22.922-64.288-22.922-28.931 0-51.686 8.929-68.266 26.789s-24.87 41.449-24.87 70.797h36.275c.667-17.665 3.478-31.184 8.346-40.559 8.679-16.83 24.369-25.259 47.068-25.259 18.333.001 31.491 4.897 39.42 14.689z"/>
    <path d="M612 306C612 137.004 474.995 0 306 0 137.004 0 0 137.004 0 306c0 168.995 137.004 306 306 306 168.995 0 306-137.005 306-306zm-584.182 0C27.818 152.36 152.36 27.818 306 27.818S584.182 152.36 584.182 306 459.64 584.182 306 584.182 27.818 459.64 27.818 306z"/>
    <path d="M274.51 415.214h40.559v42.367H274.51z"/>
</symbol><symbol id="icon-search" viewBox="0 0 16 16">
    <path d="M15.8 15.1L13 12.3c-.2.3-.5.5-.7.7l2.8 2.8c.2.2.5.2.7 0s.2-.5 0-.7zM7 0C3.1 0 0 3.1 0 7s3.1 7 7 7 7-3.1 7-7-3.1-7-7-7zm0 13c-3.3 0-6-2.7-6-6s2.7-6 6-6 6 2.7 6 6-2.7 6-6 6z"/>
</symbol><symbol id="icon-sun" viewBox="0 0 60 60">
    <path d="M30 46c-8.8 0-16-7.2-16-16s7.2-16 16-16 16 7.2 16 16-7.2 16-16 16zm0-30c-7.7 0-14 6.3-14 14s6.3 14 14 14 14-6.3 14-14-6.3-14-14-14z"/>
    <path d="M11 31H3c-.6 0-1-.4-1-1s.4-1 1-1h8c.6 0 1 .4 1 1s-.4 1-1 1z"/>
    <path d="M57 31h-8c-.6 0-1-.4-1-1s.4-1 1-1h8c.6 0 1 .4 1 1s-.4 1-1 1z"/>
    <path d="M30 58c-.6 0-1-.4-1-1v-8c0-.6.4-1 1-1s1 .4 1 1v8c0 .6-.4 1-1 1z"/>
    <path d="M30 12c-.6 0-1-.4-1-1V4c0-.6.4-1 1-1s1 .4 1 1v7c0 .6-.4 1-1 1z"/>
    <path d="M16.9 17.7c-.3 0-.5-.1-.7-.3l-5.7-5.7c-.4-.4-.4-1 0-1.4s1-.4 1.4 0l5.7 5.7c.4.4.4 1 0 1.4-.2.2-.4.3-.7.3z"/>
    <path d="M49.4 50.2c-.3 0-.5-.1-.7-.3L43 44.2c-.4-.4-.4-1 0-1.4s1-.4 1.4 0l5.7 5.7c.4.4.4 1 0 1.4-.1.2-.4.3-.7.3z"/>
    <path d="M11.3 50.2c-.3 0-.5-.1-.7-.3-.4-.4-.4-1 0-1.4l5.7-5.7c.4-.4 1-.4 1.4 0s.4 1 0 1.4L12 49.9c-.2.2-.5.3-.7.3z"/>
    <path d="M43.8 17.7c-.3 0-.5-.1-.7-.3-.4-.4-.4-1 0-1.4l4.9-4.9c.4-.4 1-.4 1.4 0s.4 1 0 1.4l-4.9 4.9c-.2.2-.5.3-.7.3z"/>
    <path d="M47.6 23.7c-.4 0-.8-.2-.9-.6-.2-.5 0-1.1.5-1.3l3.7-1.5c.5-.2 1.1 0 1.3.5.2.5 0 1.1-.5 1.3L48 23.6c-.2.1-.3.1-.4.1z"/>
    <path d="M54.9 20.7c-.4 0-.8-.2-.9-.6-.2-.5 0-1.1.5-1.3l4.1-1.7c.5-.2 1.1 0 1.3.5s0 1.1-.5 1.3l-4.1 1.7c-.1 0-.2.1-.4.1z"/>
    <path d="M37.3 13.4c-.1 0-.3 0-.4-.1-.5-.2-.8-.8-.5-1.3l1.5-3.7c.2-.5.8-.8 1.3-.5.5.2.8.8.5 1.3l-1.5 3.7c-.2.4-.5.6-.9.6z"/>
    <path d="M40.3 6.1c-.1 0-.3 0-.4-.1-.5-.2-.8-.8-.5-1.3L41.1.6c.2-.5.8-.8 1.3-.5.5.2.8.8.5 1.3l-1.7 4.1c-.1.3-.5.6-.9.6z"/>
    <path d="M22.7 13.4c-.4 0-.8-.2-.9-.6l-1.5-3.7c-.2-.5 0-1.1.5-1.3.5-.2 1.1 0 1.3.5l1.5 3.7c.2.5 0 1.1-.5 1.3-.1.1-.2.1-.4.1z"/>
    <path d="M19.7 6.1c-.4 0-.8-.2-.9-.6l-1.7-4.1c-.2-.5 0-1.1.5-1.3.5-.2 1.1 0 1.3.5l1.7 4.1c.2.5 0 1.1-.5 1.3-.2 0-.3.1-.4.1z"/>
    <path d="M12.4 23.7c-.1 0-.3 0-.4-.1l-3.7-1.5c-.5-.2-.8-.8-.5-1.3.2-.5.8-.8 1.3-.5l3.7 1.5c.5.2.8.8.5 1.3-.1.4-.5.6-.9.6z"/>
    <path d="M5.1 20.7c-.1 0-.3 0-.4-.1L.6 18.9c-.5-.2-.8-.8-.5-1.3.2-.5.8-.8 1.3-.5l4.1 1.7c.4.2.7.7.5 1.2-.2.4-.6.7-.9.7z"/>
    <path d="M8.8 39.8c-.4 0-.8-.2-.9-.6-.2-.5 0-1.1.5-1.3l3.7-1.5c.5-.2 1.1 0 1.3.5.2.5 0 1.1-.5 1.3l-3.7 1.5c-.2.1-.3.1-.4.1z"/>
    <path d="M1 43c-.4 0-.8-.2-.9-.6-.2-.5 0-1.1.5-1.3l4.1-1.7c.5-.2 1.1 0 1.3.5.2.5 0 1.1-.5 1.3l-4.1 1.7c-.1.1-.3.1-.4.1z"/>
    <path d="M21.2 52.2c-.1 0-.3 0-.4-.1-.5-.2-.8-.8-.5-1.3l1.5-3.7c.2-.5.8-.8 1.3-.5.5.2.8.8.5 1.3l-1.5 3.7c-.1.4-.5.6-.9.6z"/>
    <path d="M18 60c-.1 0-.3 0-.4-.1-.5-.2-.8-.8-.5-1.3l1.7-4.1c.2-.5.8-.8 1.3-.5.5.2.8.8.5 1.3l-1.7 4.1c-.1.4-.5.6-.9.6z"/>
    <path d="M38.8 52.2c-.4 0-.8-.2-.9-.6l-1.5-3.7c-.2-.5 0-1.1.5-1.3.5-.2 1.1 0 1.3.5l1.5 3.7c.2.5 0 1.1-.5 1.3-.1.1-.3.1-.4.1z"/>
    <path d="M42 59.9c-.4 0-.8-.2-.9-.6l-1.7-4c-.2-.5 0-1.1.5-1.3.5-.2 1.1 0 1.3.5l1.7 4c.2.5 0 1.1-.5 1.3-.1.1-.3.1-.4.1z"/>
    <path d="M51.2 39.8c-.1 0-.3 0-.4-.1l-3.7-1.5c-.5-.2-.8-.8-.5-1.3s.8-.8 1.3-.5l3.7 1.5c.5.2.8.8.5 1.3-.1.4-.5.6-.9.6z"/>
    <path d="M59 43c-.1 0-.3 0-.4-.1l-4.1-1.7c-.4-.2-.7-.7-.5-1.2s.8-.8 1.3-.5l4.1 1.7c.5.2.8.8.5 1.3-.1.3-.5.5-.9.5z"/>
    <path d="M39.8 26c-.4 0-.7-.2-.9-.5-.8-1.6-2-2.9-3.5-3.9-.5-.3-.6-.9-.3-1.4.3-.5.9-.6 1.4-.3 1.8 1.2 3.2 2.8 4.2 4.6.3.5.1 1.1-.4 1.3-.2.2-.3.2-.5.2z"/>
</symbol><symbol id="icon-user" viewBox="0 0 16 16">
    <path d="M8 0C3.6 0 0 3.6 0 8s3.6 8 8 8 8-3.6 8-8-3.6-8-8-8zm0 15c-1.5 0-3-.5-4.1-1.4.2-.3.6-.9 1.1-1.5.4-.4.9-.8 1.4-1.2.5.3 1 .5 1.6.5s1.1-.2 1.6-.5c.4.3 1 .8 1.4 1.2.6.6.9 1.1 1.1 1.5C11 14.5 9.5 15 8 15zM5.5 7.3C5.5 5.5 6.6 4 8 4s2.5 1.5 2.5 3.2c0 1.8-1.1 3.2-2.5 3.2S5.5 9 5.5 7.3zm7.4 5.7c-.2-.3-.5-.9-1.1-1.5-.4-.4-.9-.8-1.3-1.2.7-.8 1.1-1.9 1.1-3.1C11.5 4.9 9.9 3 8 3S4.5 4.9 4.5 7.3c0 1.2.4 2.3 1.1 3.1-.4.3-.9.8-1.3 1.2-.6.6-1 1.2-1.1 1.5C1.8 11.8 1 10 1 8c0-3.9 3.1-7 7-7s7 3.1 7 7c0 2-.8 3.8-2.1 5z"/>
</symbol></svg>