<?xml version="1.0" encoding="UTF-8"?><!DOCTYPE svg PUBLIC "-//W3C//DTD SVG 1.1//EN" "http://www.w3.org/Graphics/SVG/1.1/DTD/svg11.dtd"><svg xmlns="http://www.w3.org/2000/svg"><symbol id="icon-business" viewBox="0 0 336.98 336.98">
    <path d="M331.98 288.736H5a5 5 0 0 0-5 5v15a5 5 0 0 0 5 5h326.98a5 5 0 0 0 5-5v-15a5 5 0 0 0-5-5z"/>
    <path d="M6.503 265.738h15a5 5 0 0 0 5-5V148.244a5 5 0 0 0-5-5h-15a5 5 0 0 0-5 5v112.494a5 5 0 0 0 5 5z"/>
    <path d="M57.999 265.738h15a5 5 0 0 0 5-5V88.244a5 5 0 0 0-5-5h-15a5 5 0 0 0-5 5v172.494a5 5 0 0 0 5 5z"/>
    <path d="M109.495 265.738h15a5 5 0 0 0 5-5V118.244a5 5 0 0 0-5-5h-15a5 5 0 0 0-5 5v142.494a5 5 0 0 0 5 5z"/>
    <path d="M160.99 265.738h15a5 5 0 0 0 5-5V28.244a5 5 0 0 0-5-5h-15a5 5 0 0 0-5 5v232.494a5 5 0 0 0 5 5z"/>
    <path d="M212.485 265.738h15a5 5 0 0 0 5-5V112.244a5 5 0 0 0-5-5h-15a5 5 0 0 0-5 5v148.494a5 5 0 0 0 5 5z"/>
    <path d="M263.981 265.738h15a5 5 0 0 0 5-5V88.244a5 5 0 0 0-5-5h-15a5 5 0 0 0-5 5v172.494a5 5 0 0 0 5 5z"/>
    <path d="M315.478 265.738h15a5 5 0 0 0 5-5V136.244a5 5 0 0 0-5-5h-15a5 5 0 0 0-5 5v124.494a5 5 0 0 0 5 5z"/>
</symbol><symbol id="icon-cart" viewBox="0 0 459.529 459.529">
    <path d="M17 55.231h48.733l69.417 251.033c1.983 7.367 8.783 12.467 16.433 12.467h213.35c6.8 0 12.75-3.967 15.583-10.2l77.633-178.5c2.267-5.383 1.7-11.333-1.417-16.15-3.117-4.817-8.5-7.65-14.167-7.65H206.833c-9.35 0-17 7.65-17 17s7.65 17 17 17H416.5l-62.9 144.5H164.333L94.917 33.698c-1.983-7.367-8.783-12.467-16.433-12.467H17c-9.35 0-17 7.65-17 17s7.65 17 17 17z"/>
    <path d="M135.433 438.298c21.25 0 38.533-17.283 38.533-38.533s-17.283-38.533-38.533-38.533S96.9 378.514 96.9 399.764s17.283 38.534 38.533 38.534z"/>
    <path d="M376.267 438.298h2.833c10.2-.85 19.55-5.383 26.35-13.317 6.8-7.65 9.917-17.567 9.35-28.05-1.417-20.967-19.833-37.117-41.083-35.7-21.25 1.417-37.117 20.117-35.7 41.083 1.416 20.117 18.133 35.984 38.25 35.984z"/>
</symbol><symbol id="icon-check" viewBox="0 0 11 11">
    <style>
        .st0{fill:#979797}
    </style>
    <title>
        check
    </title>
    <g id="Page-1">
        <g id="check" transform="translate(0 1)">
            <path class="st0" d="M5.9 10c-.6 0-1 0-5.7-5.3l1.5-1.3c2.2 2.5 3.4 3.7 4 4.3.5-.9 1.5-3 3.4-7.8l1.9.7C7.1 10 6.7 10 5.9 10zm.3-1.9z" id="Path"/>
        </g>
    </g>
</symbol><symbol id="icon-classmates" viewBox="0 0 24 24">
    <title/>
    <g>
        <path d="M12 12a6 6 0 1 0-6-6 6 6 0 0 0 6 6zm0-9a3 3 0 1 1-3 3 3 3 0 0 1 3-3z"/>
        <path d="M18.8 15.52A2.66 2.66 0 0 0 20 13.3a1.94 1.94 0 0 0-2-2 2 2 0 0 0-1.21.41 8.06 8.06 0 0 1-9.65 0A2 2 0 0 0 6 11.35a1.94 1.94 0 0 0-2 2 2.66 2.66 0 0 0 1.2 2.22A12.31 12.31 0 0 0 8.33 17l.64.18-3.28 3.22a2.11 2.11 0 0 0 0 3 2.15 2.15 0 0 0 3 0L12 19.93l3.33 3.45a2.11 2.11 0 1 0 3-3L15 17.19l.65-.18a12.29 12.29 0 0 0 3.15-1.49z"/>
    </g>
</symbol><symbol id="icon-fb" viewBox="0 0 80.6 155.1">
    <style>
        .st0{fill:#010002}
    </style>
    <path id="f_1_" class="st0" d="M52.3 155.1V84.4H76l3.6-27.6H52.3V39.2c0-8 2.2-13.4 13.7-13.4h14.6V1.1C78 .8 69.4 0 59.3 0 38.2 0 23.8 12.9 23.8 36.5v20.3H0v27.6h23.8v70.8h28.5z"/>
</symbol><symbol id="icon-googleplus" viewBox="0 0 24 15.3">
    <title>
        Google+ icon
    </title>
    <path d="M7.6 6.5v2.6H12c-.2 1.1-1.3 3.3-4.3 3.3-2.6 0-4.7-2.2-4.7-4.8C2.9 5 5 2.8 7.6 2.8c1.5 0 2.5.6 3 1.2l2.1-2C11.4.8 9.6 0 7.6 0 3.4 0 0 3.4 0 7.6s3.4 7.6 7.6 7.6c4.4 0 7.3-3.1 7.3-7.5 0-.5-.1-.9-.1-1.3 0 .1-7.2.1-7.2.1zm16.4 0h-2.2V4.4h-2.2v2.2h-2.2v2.2h2.2V11h2.2V8.7H24"/>
</symbol><symbol id="icon-inst" viewBox="0 0 16 16">
    <path d="M8 0C5.8 0 5.5 0 4.7.1c-.9 0-1.4.1-1.9.3-.5.2-1 .5-1.4.9s-.8.9-1 1.5c-.2.5-.3 1-.3 1.9C0 5.5 0 5.8 0 8s0 2.5.1 3.3c0 .9.1 1.4.3 1.9.2.5.5 1 .9 1.4s.9.7 1.4.9c.5.2 1.1.3 1.9.3.9.2 1.2.2 3.4.2s2.5 0 3.3-.1c.9 0 1.4-.1 1.9-.3.5-.2 1-.5 1.4-.9s.7-.9.9-1.4c.2-.5.3-1.1.3-1.9.2-.9.2-1.2.2-3.4s0-2.5-.1-3.3c0-.9-.1-1.4-.3-1.9-.2-.5-.5-1-.9-1.4s-.9-.7-1.4-.9c-.5-.2-1.1-.3-1.9-.3C10.5 0 10.2 0 8 0zm0 1.4c2.1 0 2.4 0 3.2.1.8 0 1.2.1 1.5.2.4.1.6.3.9.6.3.3.5.5.6.9.1.3.2.7.2 1.5s.1 1.1.1 3.2 0 2.4-.1 3.2c0 .8-.1 1.2-.2 1.5-.1.4-.3.6-.6.9-.3.3-.5.5-.9.6-.3.1-.7.2-1.5.2s-1.1.1-3.2.1-2.4 0-3.2-.1c-.8 0-1.2-.1-1.5-.2-.4-.1-.6-.3-.9-.6-.3-.3-.5-.5-.6-.9-.1-.3-.2-.7-.2-1.5s-.1-1.1-.1-3.2 0-2.4.1-3.2c0-.8.1-1.2.2-1.5.1-.4.3-.6.6-.9s.5-.5.9-.6c.3-.1.7-.2 1.5-.2s1.1-.1 3.2-.1zm4.3 1.4c-.5 0-1 .4-1 .9s.4 1 1 1c.5 0 .9-.4.9-1s-.4-.9-.9-.9zM8 3.9C5.7 3.9 3.9 5.7 3.9 8s1.8 4.1 4.1 4.1 4.1-1.8 4.1-4.1S10.3 3.9 8 3.9zm0 1.4c1.5 0 2.7 1.2 2.7 2.7 0 1.5-1.2 2.7-2.7 2.7S5.3 9.5 5.3 8c0-1.5 1.2-2.7 2.7-2.7z"/>
</symbol><symbol id="icon-like" viewBox="0 0 51.997 51.997">
    <path d="M51.911 16.242c-.759-8.354-6.672-14.415-14.072-14.415-4.93 0-9.444 2.653-11.984 6.905-2.517-4.307-6.846-6.906-11.697-6.906C6.759 1.826.845 7.887.087 16.241c-.06.369-.306 2.311.442 5.478 1.078 4.568 3.568 8.723 7.199 12.013l18.115 16.439 18.426-16.438c3.631-3.291 6.121-7.445 7.199-12.014.748-3.166.502-5.108.443-5.477zm-2.39 5.019c-.984 4.172-3.265 7.973-6.59 10.985L25.855 47.481 9.072 32.25c-3.331-3.018-5.611-6.818-6.596-10.99-.708-2.997-.417-4.69-.416-4.701l.015-.101c.65-7.319 5.731-12.632 12.083-12.632 4.687 0 8.813 2.88 10.771 7.515l.921 2.183.921-2.183c1.927-4.564 6.271-7.514 11.069-7.514 6.351 0 11.433 5.313 12.096 12.727.002.016.293 1.71-.415 4.707z"/>
</symbol><symbol id="icon-question" viewBox="0 0 612 612">
    <path d="M230.724 181.208a1489.01 1489.01 0 0 1-5.119 5.508c2.17-2.337 5.119-5.508 5.119-5.508z"/>
    <path d="M336.962 200.875c7.956 9.792 11.906 21.337 11.906 34.634 0 9.514-2.727 18.666-8.151 27.512-2.977 5.007-6.898 9.848-11.795 14.465l-16.301 16.107c-15.634 15.356-25.732 28.958-30.35 40.865-4.618 11.878-6.927 27.54-6.927 46.957h36.275c0-17.108 1.947-30.044 5.814-38.807 3.866-8.763 12.323-19.444 25.37-32.102 17.942-17.387 29.849-30.572 35.746-39.53s8.874-20.641 8.874-35.051c0-23.756-8.039-43.285-24.146-58.585-16.106-15.3-37.526-22.922-64.288-22.922-28.931 0-51.686 8.929-68.266 26.789s-24.87 41.449-24.87 70.797h36.275c.667-17.665 3.478-31.184 8.346-40.559 8.679-16.83 24.369-25.259 47.068-25.259 18.333.001 31.491 4.897 39.42 14.689z"/>
    <path d="M612 306C612 137.004 474.995 0 306 0 137.004 0 0 137.004 0 306c0 168.995 137.004 306 306 306 168.995 0 306-137.005 306-306zm-584.182 0C27.818 152.36 152.36 27.818 306 27.818S584.182 152.36 584.182 306 459.64 584.182 306 584.182 27.818 459.64 27.818 306z"/>
    <path d="M274.51 415.214h40.559v42.367H274.51z"/>
</symbol><symbol id="icon-search" viewBox="0 0 451 451">
    <path d="M447.05 428l-109.6-109.6c29.4-33.8 47.2-77.9 47.2-126.1C384.65 86.2 298.35 0 192.35 0 86.25 0 .05 86.3.05 192.3s86.3 192.3 192.3 192.3c48.2 0 92.3-17.8 126.1-47.2L428.05 447c2.6 2.6 6.1 4 9.5 4s6.9-1.3 9.5-4c5.2-5.2 5.2-13.8 0-19zM26.95 192.3c0-91.2 74.2-165.3 165.3-165.3 91.2 0 165.3 74.2 165.3 165.3s-74.1 165.4-165.3 165.4c-91.1 0-165.3-74.2-165.3-165.4z"/>
</symbol><symbol id="icon-user" viewBox="0 0 55 55">
    <path d="M55 27.5C55 12.337 42.663 0 27.5 0S0 12.337 0 27.5c0 8.009 3.444 15.228 8.926 20.258l-.026.023.892.752c.058.049.121.089.179.137.474.393.965.766 1.465 1.127.162.117.324.234.489.348.534.368 1.082.717 1.642 1.048.122.072.245.142.368.212a27.44 27.44 0 0 0 1.88.98l.142.064a27.252 27.252 0 0 0 6.651 2.105l.184.033c.724.125 1.456.225 2.197.292.09.008.18.013.271.021.738.061 1.484.1 2.24.1.749 0 1.488-.039 2.222-.098l.279-.021a27.808 27.808 0 0 0 2.178-.287l.187-.034a27.251 27.251 0 0 0 6.557-2.055c.076-.035.153-.068.229-.104a27.639 27.639 0 0 0 2.25-1.189 27.514 27.514 0 0 0 1.581-1c.185-.126.366-.259.549-.391.439-.316.87-.642 1.289-.983.093-.075.193-.14.284-.217l.915-.764-.027-.023C51.523 42.802 55 35.55 55 27.5zm-53 0C2 13.439 13.439 2 27.5 2S53 13.439 53 27.5c0 7.577-3.325 14.389-8.589 19.063a7.494 7.494 0 0 0-.893-.537l-8.467-4.233a2.217 2.217 0 0 1-1.232-1.993v-2.957c.196-.242.403-.516.617-.817a20.378 20.378 0 0 0 2.616-5.123 3.63 3.63 0 0 0 2.085-3.289v-3.545c0-.867-.318-1.708-.887-2.369v-4.667c.052-.519.236-3.448-1.883-5.864C34.524 9.065 31.541 8 27.5 8s-7.024 1.065-8.867 3.168c-2.119 2.416-1.935 5.345-1.883 5.864v4.667a3.644 3.644 0 0 0-.887 2.369v3.545c0 1.101.494 2.128 1.34 2.821.81 3.173 2.477 5.575 3.093 6.389v2.894a2.23 2.23 0 0 1-1.162 1.958l-7.907 4.313a7.227 7.227 0 0 0-.752.476C5.276 41.792 2 35.022 2 27.5zm40.459 20.632c-.35.254-.706.5-1.067.735-.166.108-.331.216-.5.321-.472.292-.952.57-1.442.83-.108.057-.217.111-.326.167a25.481 25.481 0 0 1-3.488 1.476l-.127.043c-.627.208-1.262.393-1.904.552l-.006.001a25.59 25.59 0 0 1-1.964.402l-.054.01c-.621.101-1.247.174-1.875.229-.111.01-.222.017-.334.025-.621.047-1.245.077-1.872.077a25.43 25.43 0 0 1-1.895-.078c-.109-.008-.218-.015-.326-.025a25.862 25.862 0 0 1-1.89-.233l-.084-.015a25.405 25.405 0 0 1-3.89-.971l-.118-.04a25.86 25.86 0 0 1-1.862-.713l-.013-.006a26.094 26.094 0 0 1-1.705-.816c-.073-.038-.147-.074-.219-.113a25.7 25.7 0 0 1-1.939-1.155 25.417 25.417 0 0 1-1.338-.933l-.133-.104.096-.054 7.907-4.313a4.229 4.229 0 0 0 2.205-3.714l-.001-3.602-.23-.278c-.022-.025-2.184-2.655-3.001-6.216l-.091-.396-.341-.221a1.657 1.657 0 0 1-.769-1.392v-3.545c0-.465.197-.898.557-1.223l.33-.298v-5.57l-.009-.131c-.003-.024-.298-2.429 1.396-4.36C21.583 10.837 24.061 10 27.5 10c3.426 0 5.896.83 7.346 2.466 1.692 1.911 1.415 4.361 1.413 4.381l-.009 5.701.33.298c.359.324.557.758.557 1.223v3.545a1.67 1.67 0 0 1-1.181 1.575l-.497.153-.16.495a18.5 18.5 0 0 1-2.496 5.032c-.262.37-.517.698-.736.949l-.248.283V39.8c0 1.612.896 3.062 2.338 3.782l8.467 4.233.16.083c-.107.081-.217.156-.325.234z"/>
</symbol><symbol id="icon-vk" viewBox="0 0 548.4 312.9">
    <path d="M545.5 282.5c-.7-1.4-1.3-2.6-1.9-3.6-9.5-17.1-27.7-38.2-54.5-63.1l-.6-.6-.3-.3-.3-.3h-.3c-12.2-11.6-19.9-19.4-23.1-23.4-5.9-7.6-7.2-15.3-4-23.1 2.3-5.9 10.9-18.4 25.7-37.4 7.8-10.1 14-18.2 18.6-24.3 32.9-43.8 47.2-71.8 42.8-83.9l-1.7-2.8c-1.1-1.7-4.1-3.3-8.8-4.7-4.8-1.4-10.9-1.7-18.3-.7l-82.2.6c-1.3-.5-3.2-.4-5.7.1-2.5.6-3.7.9-3.7.9l-1.4.7-1.1.9c-1 .6-2 1.6-3.1 3s-2.1 3.1-2.8 5c-9 23-19.1 44.4-30.6 64.2-7 11.8-13.5 22-19.4 30.7-5.9 8.7-10.8 15-14.8 19.1-4 4.1-7.6 7.4-10.9 9.8-3.2 2.5-5.7 3.5-7.4 3.1-1.7-.4-3.3-.8-4.9-1.1-2.7-1.7-4.8-4-6.4-7-1.6-3-2.7-6.7-3.3-11.1-.6-4.5-.9-8.3-1-11.6-.1-3.2 0-7.8.1-13.7.2-5.9.3-9.9.3-12 0-7.2.1-15.1.4-23.6.3-8.5.5-15.2.7-20.1.2-4.9.3-10.2.3-15.7s-.3-9.8-1-13c-.7-3.1-1.7-6.2-3-9.1-1.3-2.9-3.3-5.2-5.9-6.9-2.6-1.6-5.8-2.9-9.6-3.9-10.1-2.3-22.9-3.5-38.5-3.7-35.4-.4-58.1 1.9-68.2 6.9-4 2.1-7.6 4.9-10.8 8.6-3.4 4.2-3.9 6.5-1.4 6.9 11.4 1.7 19.5 5.8 24.3 12.3l1.7 3.4c1.3 2.5 2.7 6.9 4 13.1 1.3 6.3 2.2 13.2 2.6 20.8.9 13.9.9 25.8 0 35.7-1 9.9-1.9 17.6-2.7 23.1-.9 5.5-2.1 10-3.9 13.4-1.7 3.4-2.9 5.5-3.4 6.3-.6.8-1 1.2-1.4 1.4-2.5.9-5 1.4-7.7 1.4s-5.9-1.3-9.7-4c-3.8-2.7-7.8-6.3-11.8-11-4.1-4.7-8.7-11.2-13.9-19.6-5.1-8.4-10.5-18.3-16-29.7l-4.6-8.3c-2.9-5.3-6.8-13.1-11.7-23.3-5-10.2-9.3-20-13.1-29.6-1.5-4-3.8-7-6.9-9.1l-1.4-.9c-.9-.8-2.5-1.6-4.6-2.4-2.1-.9-4.3-1.5-6.6-1.9l-78.2.6c-8 0-13.4 1.8-16.3 5.4l-1.1 1.7C.3 22.4 0 23.9 0 26c0 2.1.6 4.7 1.7 7.7C13.1 60.6 25.6 86.4 39 111.4s25.1 45 35 60.2c9.9 15.2 20 29.6 30.3 43.1s17.1 22.2 20.4 26c3.3 3.8 6 6.7 7.9 8.6l7.1 6.9c4.6 4.6 11.3 10 20.1 16.4 8.9 6.4 18.7 12.7 29.4 18.9 10.8 6.2 23.3 11.2 37.5 15.1 14.3 3.9 28.2 5.5 41.7 4.7h32.8c6.7-.6 11.7-2.7 15.1-6.3l1.1-1.4c.8-1.1 1.5-2.9 2.1-5.3.7-2.4 1-5 1-7.9-.2-8.2.4-15.6 1.9-22.1 1.4-6.6 3-11.5 4.9-14.8 1.8-3.3 3.9-6.1 6.1-8.4 2.3-2.3 3.9-3.7 4.9-4.1.9-.5 1.7-.8 2.3-1 4.6-1.5 9.9 0 16.1 4.4 6.2 4.5 12 10 17.4 16.6 5.4 6.6 11.9 13.9 19.6 22.1 7.6 8.2 14.3 14.3 20 18.3l5.7 3.4c3.8 2.3 8.8 4.4 14.9 6.3 6.1 1.9 11.4 2.4 16 1.4l73.1-1.1c7.2 0 12.9-1.2 16.8-3.6 4-2.4 6.4-5 7.1-7.9.8-2.9.8-6.1.1-9.7-.6-3.7-1.3-6.2-1.9-7.7z"/>
</symbol></svg>